<svg xmlns="http://www.w3.org/2000/svg" width="378.004" height="121.306" viewBox="0 0 378.004 121.306"><defs><style>.a{fill:#fff;}</style></defs><g transform="translate(-569.033 -461)"><path class="a" d="M649.5,476.527a4.115,4.115,0,0,1-.737,2.291A2.148,2.148,0,0,1,647.029,480a1.552,1.552,0,0,1-1.318-.766,2.906,2.906,0,0,1-.567-1.675,3.6,3.6,0,0,1,.883-2.14A2.291,2.291,0,0,1,647.8,474.3a1.428,1.428,0,0,1,1.213.556,2.551,2.551,0,0,1,.485,1.668m7.706-.406-.422.105c-.792.878-1.585,1.758-2.376,2.628a2.229,2.229,0,0,1-1.672.766l-.338-.241-.192-.706a19.647,19.647,0,0,1,.808-2.471,5.5,5.5,0,0,0,.39-1.923,7.964,7.964,0,0,0-.045-.894l-.692-.585-.248.09a2.432,2.432,0,0,1-1.652.615,4.187,4.187,0,0,1-1.461-.443,7.362,7.362,0,0,0-2.847-.5,3.9,3.9,0,0,0-2.9,1.638,5.153,5.153,0,0,0-1.372,3.312,4.908,4.908,0,0,0,.747,2.719,3.515,3.515,0,0,0,3.1,1.562h.041a20.579,20.579,0,0,0,2.546-.247,21.585,21.585,0,0,1,2.562-.242,5.661,5.661,0,0,1,1.389.151l.146.008a4.965,4.965,0,0,0,2.753-1.412,11.277,11.277,0,0,0,1.916-2.494l.079-.322-.023-.751Z" transform="translate(0.796 0.126)"/><path class="a" d="M659.219,467.393l-.889-.339-.916.234-.593.871.368.706.248.368.094.346-.234.4c-.424.549-.646.714-.713,1.157l.022.09.044.217.207.248.161.037.147-.022.417-.173.082-.053a6,6,0,0,0,1.386-1.532,3.359,3.359,0,0,0,.609-1.682Z" transform="translate(0.953 0.066)"/><path class="a" d="M670.13,476.151h-.38A11.545,11.545,0,0,0,668.084,478c-.617.744-1.277,1.21-1.438,1.12l-.11-.21-.074-.451a3.717,3.717,0,0,0-1.286-2.44c-1.64-1.428-2.377-2.539-2.339-2.863l-.059-.2-.426-.353-.161-.038h-.03l-.331.2-1.761,3.365-.178.563.031.668.244.361.418-.127c.353-.444.722-.879,1.092-1.33l.655-.368c.1,0,.439.188.829.848a2.968,2.968,0,0,1,.578,1.534l-.432.938a1.349,1.349,0,0,1-1.021.451c-.225.014-.593-.2-1.026-.841-.491-.714-.968-1.173-1.592-1.194l-.36.255-.076.617a2.781,2.781,0,0,0,1.1,2.2,4.012,4.012,0,0,0,2.655.909h.008a8.683,8.683,0,0,0,4.608-1.179,6.322,6.322,0,0,0,2.681-2.929l.057-.264-.015-.766Z" transform="translate(0.982 0.126)"/><path class="a" d="M692.427,477l.243-.631c.579-1.246,1.116-2.44,1.976-4.717s1.6-4.04,2.185-5.242a13.551,13.551,0,0,1,2.877-4.191l.3-.158.161-.015a1.029,1.029,0,0,1,1.094.833l-.008.152a25.964,25.964,0,0,1-1.188,3.461c-.8,1.939-1.276,3.109-1.381,3.418a12.982,12.982,0,0,0-.638,2.238l-.015.683.646-.022.721-.105a8.1,8.1,0,0,1,.924-.015,3.181,3.181,0,0,1,2.194.736,2.787,2.787,0,0,1,.765,2.133,6.743,6.743,0,0,1-.375,1.878,8.288,8.288,0,0,0-.353,1.509l-.037.376.2.322c.647.428,2.047-.5,2.768-1.306.593-.647.86-.985,1.153-1.314l.793-1.1.191.405.169.323v.878l-.037.181a10.856,10.856,0,0,1-1.945,2.7,3.972,3.972,0,0,1-2.847,1.307h-.007a3.864,3.864,0,0,1-2.369-.811,2.492,2.492,0,0,1-1.146-2.051,8.166,8.166,0,0,1,.763-2.516,3.482,3.482,0,0,0,.367-1.179l-.2-.639-.661-.353c-.867,0-1.725.526-2.585,1.779a31.705,31.705,0,0,0-1.814,3.6,9.334,9.334,0,0,1-.818,1.509c-.252.353-.459.631-.884.661a2.381,2.381,0,0,1-.976-.158,1.549,1.549,0,0,1-.586-.977,6.216,6.216,0,0,1,.007-1.908,11.388,11.388,0,0,1,.373-1.675" transform="translate(1.338 0.011)"/><path class="a" d="M715,476.526l-.205-.331-.391.015-.108-.285a18.348,18.348,0,0,1-1.983,2.344,3.322,3.322,0,0,1-2.246,1.223l-.217-.061-.068-.652a7.527,7.527,0,0,1,.683-2.39,8.159,8.159,0,0,0,.747-2.771l-.578-.811-.77-.166c-.844.029-1.459.743-2.057,1.908a7.485,7.485,0,0,0-.924,3.4,5.824,5.824,0,0,0,.522,2.456,1.988,1.988,0,0,0,1.784,1.255h.03a5.275,5.275,0,0,0,3.316-1.269,11.2,11.2,0,0,0,2.451-2.726l.4-.557Zm-4.381-6.655,1.032.278.773-.383.379-.758-.432-.969-.953-.345-.954.345a1.306,1.306,0,0,0-.429,1.029.981.981,0,0,0,.583.8" transform="translate(1.5 0.073)"/><path class="a" d="M732.313,476.158l.052-.24-.228-.054a11.535,11.535,0,0,1-1.033.962c-.428.4-1.029.96-1.79,1.719a2.065,2.065,0,0,1-1.386.706c-.567-.044-.574-.083-.629-.5a5.469,5.469,0,0,1,.229-1.134,10.169,10.169,0,0,0,.493-2.321,2.764,2.764,0,0,0-.707-2.1,3.2,3.2,0,0,0-2.223-.639,12.069,12.069,0,0,0-2.055.2c-1.336.233-2.177.353-2.4.353a12.386,12.386,0,0,1-1.386-.368,3.635,3.635,0,0,0-1.115-.181,3.773,3.773,0,0,0-2.974,1.721,11.855,11.855,0,0,0-1.225,2.14l-.029.165v.827l.108.27.29.105c.484-.09.762-.436,1.187-.977a11.59,11.59,0,0,0,.769-1.2l.66-.707.8-.33c.47.053.567.135.631.894a6.348,6.348,0,0,1-.849,2.418,6.518,6.518,0,0,0-.927,2.764l.515.639.807.173h.238l.187-.037c.86-.512,1.544-1.841,2.366-4.086a4.971,4.971,0,0,1,1.423-2.291,3.586,3.586,0,0,1,.991-.609,2.8,2.8,0,0,1,.91-.308,1.3,1.3,0,0,1,.93.255,1.362,1.362,0,0,1,.238.961,8.466,8.466,0,0,1-.245,1.615,8.147,8.147,0,0,0-.285,1.8,3.247,3.247,0,0,0,.57,2.028,2.237,2.237,0,0,0,1.822.766h.037a4.914,4.914,0,0,0,3.309-1.525,15.009,15.009,0,0,0,2.021-2.464l.058-.21v-.878Z" transform="translate(1.577 0.126)"/><path class="a" d="M736.251,476.451l-.585.721-.095.061-.244.1-.184.015-.108-.112-.081-.338a3.829,3.829,0,0,1,.41-1.661c.293-.533.662-.781.939-.714l.147.128.015.083.044.676Zm6.643-.391-.116-.51a21.9,21.9,0,0,1-4.212,3.4,3.865,3.865,0,0,1-1.845.849l-.518-.121-.112-.141.054-.225a8.173,8.173,0,0,0,1.877-1.7,3.886,3.886,0,0,0,.968-2.426,2.682,2.682,0,0,0-.647-2,3.208,3.208,0,0,0-2.309-.632,4.045,4.045,0,0,0-3,1.465,4.753,4.753,0,0,0-1.336,3.191,4.3,4.3,0,0,0,1.218,3.087,4.455,4.455,0,0,0,3.345,1.247h.008a6.64,6.64,0,0,0,3.6-1.367,18.067,18.067,0,0,0,2.948-2.629l.1-.255v-.827Z" transform="translate(1.771 0.126)"/><path class="a" d="M755.237,476.451l-.713.707-.432.2-.075-.12-.073-.345a3.651,3.651,0,0,1,.418-1.661c.278-.533.545-.7.932-.714l.112.068.094.812Zm6.455-.308-.386.03c-1.255.931-2.5,1.848-3.751,2.779a3.913,3.913,0,0,1-1.855.856l-.5-.128-.131-.157.056-.21a7.669,7.669,0,0,0,1.881-1.7,3.942,3.942,0,0,0,.969-2.419,2.7,2.7,0,0,0-.645-2.012,3.284,3.284,0,0,0-2.313-.632,4.053,4.053,0,0,0-3,1.48,4.677,4.677,0,0,0-1.322,3.183A4.224,4.224,0,0,0,751.9,480.3a4.441,4.441,0,0,0,3.334,1.256h.016a6.653,6.653,0,0,0,3.6-1.383,15.357,15.357,0,0,0,2.952-2.636,1.023,1.023,0,0,0,.161-.691l-.023-.375Z" transform="translate(1.977 0.126)"/><path class="a" d="M787.743,476.451l-.66.736-.492.18-.094-.113-.046-.359a3.732,3.732,0,0,1,.411-1.661c.289-.525.552-.706.927-.714l.154.106.064.781Zm6.331-.519-.693.084a14.21,14.21,0,0,1-3,2.927,4.563,4.563,0,0,1-2.174.864l-.507-.128-.131-.15.068-.217a7.716,7.716,0,0,0,1.877-1.7,3.928,3.928,0,0,0,.969-2.426,2.686,2.686,0,0,0-.647-2,3.208,3.208,0,0,0-2.313-.632,4.06,4.06,0,0,0-3,1.465,4.708,4.708,0,0,0-1.322,3.191,4.193,4.193,0,0,0,1.214,3.087,4.434,4.434,0,0,0,3.33,1.247h.016a6.66,6.66,0,0,0,3.6-1.367,13.893,13.893,0,0,0,2.628-2.659l.618-.947-.332-.308Z" transform="translate(2.331 0.126)"/><path class="a" d="M803.348,476.234l-.4-.1c-.253.339-.582.775-1.529,1.856a3.24,3.24,0,0,1-1.657,1.12l-.083-.174-.1-.48a3.379,3.379,0,0,0-1.284-2.44c-1.631-1.428-2.386-2.532-2.33-2.855l-.063-.21-.429-.353-.162-.038h-.033l-.331.2-1.867,3.59-.047.181v.826l.263.361.416-.127c.345-.444.714-.879,1.1-1.33l.654-.376c.071-.022.425.2.834.849a3.245,3.245,0,0,1,.575,1.548l-.436.924a1.355,1.355,0,0,1-1.026.458c-.221.014-.6-.2-1.029-.848-.492-.707-.954-1.157-1.585-1.181l-.36.249-.08.617a2.78,2.78,0,0,0,1.1,2.2,4,4,0,0,0,2.65.909,8.681,8.681,0,0,0,4.617-1.179A6.321,6.321,0,0,0,803.4,477.5l.052-.144.087-.8Z" transform="translate(2.431 0.126)"/><path class="a" d="M808,467.8a.824.824,0,0,0-.946-.166,1.381,1.381,0,0,0-.755.721l-1.359,4.311H803.62l-.823.405-.082.819.4.444.409.1h.462l-1.349,2.007-.044.375c.044.225.006.954.067,2.238a7.682,7.682,0,0,0,.249,1.773,1.146,1.146,0,0,0,.845.833l.1.008a6.382,6.382,0,0,0,4.184-1.525c.323-.277,1.04-1.074,2.276-2.485l.1-.249v-.887l-.232-.339-1.445.069a3.883,3.883,0,0,1-.767,1.764,4.309,4.309,0,0,1-2.749,1.752H805.2l-.015-.016-.061-.421.076-.78.138-.571,1.254-3.546h1.217l.729-.119.425-.751-.162-.684-.24-.15-.508-.068h-1.014l1.059-4a1.115,1.115,0,0,0-.1-.871" transform="translate(2.542 0.071)"/><path class="a" d="M815.762,476.519a4.047,4.047,0,0,1-.739,2.291c-.568.848-1.117,1.186-1.721,1.186a1.5,1.5,0,0,1-1.317-.75,2.89,2.89,0,0,1-.568-1.683,3.677,3.677,0,0,1,.876-2.14,2.323,2.323,0,0,1,1.768-1.127,1.455,1.455,0,0,1,1.224.572,2.549,2.549,0,0,1,.477,1.652m7.706-.4-.405-.188c-.778.878-1.592,2.058-2.386,2.921a2.222,2.222,0,0,1-1.693.774l-.338-.249-.161-.706a13.651,13.651,0,0,1,.807-2.471,5.576,5.576,0,0,0,.369-1.923,4.749,4.749,0,0,0-.046-.9l-.676-.571-.247.091a2.477,2.477,0,0,1-1.661.616,4.45,4.45,0,0,1-1.453-.451,7.254,7.254,0,0,0-2.854-.5,3.936,3.936,0,0,0-2.907,1.653,5.092,5.092,0,0,0-1.348,3.29,4.917,4.917,0,0,0,.733,2.725,3.524,3.524,0,0,0,3.1,1.562h.041a19.314,19.314,0,0,0,2.554-.247,20.2,20.2,0,0,1,2.553-.249,7.591,7.591,0,0,1,1.161.12l.436.015a4.542,4.542,0,0,0,2.7-1.382,11.26,11.26,0,0,0,1.907-2.5l.05-.187v-.887Z" transform="translate(2.606 0.126)"/><path class="a" d="M837.977,476.151l-.378-.008c-.185.12-.09.061-.53.481l-.53.609c-.416.419-.609.623-1.386,1.412l-.271.248a1.574,1.574,0,0,1-1.144.534c-.414.007-.6-.106-.609-.135-.119-.129-.155-.308-.136-.759a7.455,7.455,0,0,1,.62-2.306,8.324,8.324,0,0,0,.689-2.689v-.442l-.132-.279-.462-.2-.74-.06-.191.053a3.823,3.823,0,0,0-1.563,2.239,8.518,8.518,0,0,1-1.1,2.4c-.77.692-1.363,1.21-1.724,1.474a3.92,3.92,0,0,1-2.129.8,1.273,1.273,0,0,1-.793-.151c-.041,0-.162-.277-.155-.8a5.668,5.668,0,0,1,.406-1.841c.724-2.11,1.107-3.2,1.129-3.237l-.029-.307a1.1,1.1,0,0,0-.984-.639c-.777,0-1.371.586-1.776,1.473a5.757,5.757,0,0,1-1.093,1.84l-.155.3v.466c0,.15-.029.5-.093,1.013a9.126,9.126,0,0,0-.105,1.112,2.676,2.676,0,0,0,.762,2.08,3.112,3.112,0,0,0,2.18.715h.009a7.538,7.538,0,0,0,2.678-.827c.367-.158.859-.405,1.468-.729.476-.284.571.353,1.138.789a3.374,3.374,0,0,0,2.148.766,4.769,4.769,0,0,0,3.034-1.466,11.063,11.063,0,0,0,2.069-2.546l.048-.2v-.878Z" transform="translate(2.76 0.126)"/><path class="a" d="M841.733,481.22c.525-.5.84-1.645,1.678-4.071.631-1.818,1.43-2.546,2.444-2.546l.147.143.154,1.224.015.1a3.138,3.138,0,0,0,.7,1.367,2.247,2.247,0,0,0,1.746.729,5.032,5.032,0,0,0,1.18-.143,7.8,7.8,0,0,0,1.037-.308l.233-.353v-.887l-.162-.307-.357-.037-.714.165a2.738,2.738,0,0,1-.939.18l-.714-.353-.2-.8.148-.571a3.51,3.51,0,0,0,.176-1.014l-.221-.765-.9-.406a11.387,11.387,0,0,0-1.915.286,10.359,10.359,0,0,1-2.058.285l-.646-.158a6.259,6.259,0,0,0-1.607-.413,3.312,3.312,0,0,0-2.523,1.555c-.249.346-.69,1.09-1.38,2.306l-.176.249.139.69.245.361.416-.127.045.3c.673-.894,1.27-1.953,1.95-2.787a1.821,1.821,0,0,1,1.111-.773l.11.06.056.158-.018.617-.016.1a18.435,18.435,0,0,1-.913,3.072,6.942,6.942,0,0,0-.432,2.177l.279.707.728.241h.4Z" transform="translate(2.915 0.126)"/><path class="a" d="M856.339,476.519a4.019,4.019,0,0,1-.735,2.291A2.089,2.089,0,0,1,853.88,480a1.53,1.53,0,0,1-1.306-.75,2.964,2.964,0,0,1-.564-1.683,3.666,3.666,0,0,1,.877-2.14,2.3,2.3,0,0,1,1.769-1.127,1.424,1.424,0,0,1,1.206.572,2.5,2.5,0,0,1,.477,1.652m7.7-.4-.744.12a13.065,13.065,0,0,1-1.878,2.561,2.363,2.363,0,0,1-1.753.842l-.5-.279-.109-.69a13.94,13.94,0,0,1,.815-2.471,5.619,5.619,0,0,0,.372-1.923,4.554,4.554,0,0,0-.048-.9l-.684-.571-.237.091a2.5,2.5,0,0,1-1.664.616,4.506,4.506,0,0,1-1.445-.451,7.183,7.183,0,0,0-2.846-.5,3.946,3.946,0,0,0-2.9,1.638,5.176,5.176,0,0,0-1.367,3.306,4.894,4.894,0,0,0,.751,2.725,3.5,3.5,0,0,0,3.1,1.562h.03a18.8,18.8,0,0,0,2.545-.247,20.182,20.182,0,0,1,2.56-.249,4.083,4.083,0,0,1,1.206.12l.315.053a3.86,3.86,0,0,0,2.73-1.315,12.436,12.436,0,0,0,2-2.681l.554-.773-.56-.225Z" transform="translate(3.048 0.126)"/><path class="a" d="M881.465,476.091l-.3-.21c-.2.263-.5.624-.916,1.082-.429.436-.567.564-1.345,1.315a3.828,3.828,0,0,1-1.862.938c-.362.015-.531-.112-.575-.533a4.381,4.381,0,0,1,.22-1.127,10.88,10.88,0,0,0,.485-2.336,2.757,2.757,0,0,0-.7-2.1,3.19,3.19,0,0,0-2.23-.638,11.371,11.371,0,0,0-2.047.2,23.926,23.926,0,0,1-2.414.345,11.369,11.369,0,0,1-1.368-.367,3.973,3.973,0,0,0-1.116-.181,3.828,3.828,0,0,0-2.977,1.712,13.036,13.036,0,0,0-1.217,2.148l-.037.158v.841l.123.278.279.1c.492-.084.75-.436,1.182-.985a12.886,12.886,0,0,0,.77-1.209l.646-.691.816-.338c.468.045.57.135.623.894a6.04,6.04,0,0,1-.837,2.419,6.509,6.509,0,0,0-.94,2.764l.515.646.809.173h.247l.177-.053c.86-.488,1.551-1.825,2.371-4.087a5.008,5.008,0,0,1,1.426-2.283,3.6,3.6,0,0,1,1-.609,2.444,2.444,0,0,1,.9-.293,1.224,1.224,0,0,1,.917.241,1.367,1.367,0,0,1,.256.969,9.026,9.026,0,0,1-.264,1.621,8.873,8.873,0,0,0-.277,1.781,3.244,3.244,0,0,0,.578,2.043,2.267,2.267,0,0,0,1.829.743h.015a4.816,4.816,0,0,0,3.316-1.517,14.745,14.745,0,0,0,2.025-2.464l.061-.21v-.871Z" transform="translate(3.2 0.125)"/><path class="a" d="M886.37,468.166l-1.161,4.431h1.446c.822.061,1.014.315,1.063.5l-.357.938-1.067.331h-1.539l-1.255,3.545-.132.579-.082.773.068.436h.014l.019.014a5.947,5.947,0,0,0,2.858-1.614c.632-.564,1.047-1.352,1.7-1.923l.409-.061.2.368-.177.541-.462.85a8.115,8.115,0,0,1-1.709,2.2,5.565,5.565,0,0,1-4.277,1.5l-.141-.023a.919.919,0,0,1-.74-.75,4.87,4.87,0,0,1-.222-1.818,7.492,7.492,0,0,0-.161-2.306v-.03l.044-.36,1.453-1.924H881.6a2.721,2.721,0,0,1-.8-.06.811.811,0,0,1-.546-.683l.177-.578c.278-.444,1.169-.451,1.169-.451h1.509l1.462-4.649.544-.7.792-.143.463.375Z" transform="translate(3.388 0.066)"/><path class="a" d="M621.59,482.41c-.435-.121-.552-.924-.375-1.466a10.539,10.539,0,0,1,1.445-2.733,54.521,54.521,0,0,0,3.7-6.2c1.039-2.073,3.33-6.032,3.638-6.707a18,18,0,0,1,2.032-2.96,2.314,2.314,0,0,1,1.719-.368,1.832,1.832,0,0,1,1.164,2.095c-.109,1.113-1.164,5.725-1.292,6.528-.117.789,0,1.223.252,1.284a1.3,1.3,0,0,0,1.291-.5c.493-.549,4.123-5.708,5.048-6.587.919-.849,2.707-2.268,3.752-2.322s1.468.61,1.468,1.773a13.623,13.623,0,0,1-1.592,4.761c-.676,1.21-3.012,5.393-3.259,6.2a12.553,12.553,0,0,0-.683,2.576,11.094,11.094,0,0,1-.33,2.794c-.272.773-1.153,1.69-1.687,1.72s-1.115-.706-1.284-1.72a6.341,6.341,0,0,1,.3-3.14c.277-.8.983-2.576,1.115-3.042a9.956,9.956,0,0,0,.4-1.683l-.342-.134a2.958,2.958,0,0,0-.992,1.044c-.183.405-2.385,2.967-3.162,4.153a16.359,16.359,0,0,1-3.143,3.252c-.785.594-1.54.511-1.693.218a1.921,1.921,0,0,1-.347-1.517c.109-.916.448-2.809.586-3.665a3.7,3.7,0,0,0,.029-1.689l-.616.134c-.161.234-1.715,2.6-2.459,3.764a33.518,33.518,0,0,1-2.655,3.65,2.627,2.627,0,0,1-2.032.481" transform="translate(0.567 0.01)"/><path class="a" d="M686.681,473.143c-.41-.248-.285-1.156-.124-1.569a22.99,22.99,0,0,1,3.133-3.486c1.329-1.246,1.8-1.9,1.881-2.411a1.429,1.429,0,0,0-.361-1.457,2.055,2.055,0,0,0-1.562.165,16.108,16.108,0,0,0-4.927,3.981,11.935,11.935,0,0,0-2.148,4.176,8.863,8.863,0,0,0-.038,4.544,2.609,2.609,0,0,0,2.453,1.773c.848-.12,2.178-1.405,2.9-1.773a2.769,2.769,0,0,1,2.125-.315,1.364,1.364,0,0,1,.484,1.8c-.364.713-3.131,2.569-4.1,2.975a5.1,5.1,0,0,1-3.208.044,5.611,5.611,0,0,1-3.822-3.657,13.155,13.155,0,0,1,.4-6.151,20.887,20.887,0,0,1,3.437-6.324,19.243,19.243,0,0,1,5.208-4.042,6.628,6.628,0,0,1,4.374.121,3.428,3.428,0,0,1,2.018,2.643,7.646,7.646,0,0,1-.924,4.183,24.6,24.6,0,0,1-3.508,3.418,6.548,6.548,0,0,1-2.253,1.4,1.756,1.756,0,0,1-1.439-.045" transform="translate(1.199 0.001)"/><path class="a" d="M777.189,472.07c-.446.458-1.211,1-1.812.744-.354-.135-.117-1.4.3-2.307.4-.908,1.711-4.754,2.767-5.5,1.062-.759,1.416.2,1.461.653a7.64,7.64,0,0,1-.337,3.635,15.739,15.739,0,0,1-2.379,2.772m3.024,2.516a23.088,23.088,0,0,0,2.318-3.981,14.392,14.392,0,0,0,.866-6.459,3.731,3.731,0,0,0-3.237-3.125,5.6,5.6,0,0,0-3.733,1.058c-1.659,1.165-3.068,4.9-3.237,5.4-.146.5-1.352,4.281-1.559,5a62.118,62.118,0,0,0-1.753,6.045,4.228,4.228,0,0,0,.552,3.177c.206.211.654.211,1.261-.09a4.687,4.687,0,0,0,1.668-2.389,30.566,30.566,0,0,1,1.1-2.974l.918.263c.138.256,2.061,2.569,2.967,3.733a8.947,8.947,0,0,0,2.733,2.418,1.091,1.091,0,0,0,1.36-.863,3.769,3.769,0,0,0-.969-2.877,33.735,33.735,0,0,1-2.37-3.372c-.09-.248.61-.3,1.116-.961" transform="translate(2.185)"/><path class="a" d="M752.427,476.151h-.379A11.9,11.9,0,0,0,750.38,478a2.841,2.841,0,0,1-1.438,1.12l-.093-.135-.091-.526a3.349,3.349,0,0,0-1.277-2.44c-1.638-1.428-2.339-2.539-2.339-2.863l-.053-.172-.1-.159-.337-.224-.121-.038h-.071l-.34.2a21.387,21.387,0,0,1-1.652,3.042.932.932,0,0,0-.255.729v.826l.255.361.414-.127c.354-.444.726-.879,1.094-1.33l.668-.368c.071-.037.416.188.815.848a3.185,3.185,0,0,1,.592,1.534l-.454.938a1.339,1.339,0,0,1-1.022.451c-.217.014-.577-.2-1.017-.841-.484-.714-.968-1.173-1.589-1.194l-.349.255-.089.617a2.736,2.736,0,0,0,1.107,2.2,3.945,3.945,0,0,0,2.651.909h.007a8.684,8.684,0,0,0,4.609-1.179,6.4,6.4,0,0,0,2.677-2.929l.037-.144v-.887Z" transform="translate(1.878 0.126)"/><path class="a" d="M613.286,499.193l-.083-.263c0-.211.076-.646.076-1.209l-.03-.549c-.146-1.494-1.293-2.921-3.591-3.681a13.569,13.569,0,0,0-4.392-.848,4.672,4.672,0,0,0-2.153.429,1.669,1.669,0,0,0-1.024,1.479,2.176,2.176,0,0,0,.639,1.382l.87.789.431.946-.122.481a3.888,3.888,0,0,0-.373,1.773,1.8,1.8,0,0,1-.36,1.089,2.616,2.616,0,0,1-1.491.751c-.77.2-1.7.353-2.591.609a21.758,21.758,0,0,1-3.538.954,2.31,2.31,0,0,1-.593-.661c-.315-.429-.691-1.044-1.176-1.668a23.474,23.474,0,0,0-3.5-3.3,2.817,2.817,0,0,0-1.686-.706,1.41,1.41,0,0,0-1.336.908,9.671,9.671,0,0,1-1.21,2.539,2.182,2.182,0,0,0-.405,1.262,3.6,3.6,0,0,0,1.115,2.313,5.376,5.376,0,0,1,.068.954c0,1.389-.229,3.313-.244,4.019l.014.179v.174a1.237,1.237,0,0,1-.631,1.208c-.96.406-1.96.225-3.213.55l-.273.022-.689-.218c-.278-.128-.426-.308-.857-.5l-.6-.092a2.112,2.112,0,0,0-1.877,1.091l-.331.24a2.821,2.821,0,0,0-.924.8l-.2.7a1.9,1.9,0,0,0,.567,1.246l.98.834a11.115,11.115,0,0,0,5.427,1.818h.292l-.044-.939.06.939a3.445,3.445,0,0,0,2.26-.924,7.742,7.742,0,0,1,.864-.863,5.645,5.645,0,0,1,2.415-.331c.537,0,1.077.015,1.576.015l.77-.022a11.277,11.277,0,0,0,1.77-.181,2.419,2.419,0,0,0,1.5-1.278,3.8,3.8,0,0,0,.418-1.794c-.019-1.089-.35-1.9-.315-2.291v-.053a2.787,2.787,0,0,1,.545-1.172,3.618,3.618,0,0,1,.945-.984,28.69,28.69,0,0,1,3.568-1.524,5.6,5.6,0,0,1,1.614-.279l.447.038-.4.931a8.31,8.31,0,0,1-.9,1.285,24.751,24.751,0,0,1-2.076,2.169l-.176.241-.286.961.4,1.037,1.044.435.484-.074a4.81,4.81,0,0,0,1.577-1.067c.5-.444.984-.932,1.329-1.308a6.461,6.461,0,0,1,2.618-1.292,3.764,3.764,0,0,0,1.9-2.042c.115-.106.631-.361,1.148-.654a5.807,5.807,0,0,0,2.2-2.6,5.378,5.378,0,0,1,.5-.751l.147-.151v-.007a4.482,4.482,0,0,0,.718-.225,1.869,1.869,0,0,0,1.1-1.638,2,2,0,0,0-.7-1.45" transform="translate(0.087 0.344)"/><path class="a" d="M619.986,541.8c-1.446-1.594-3.285-1.6-3.984-1.977a7.939,7.939,0,0,0-2.922-.472,7.2,7.2,0,0,0-2.084.249,23,23,0,0,1-4.056,1.229c-1.059.1-3.274.43-4.881.422a4.672,4.672,0,0,1-1.447-.158.983.983,0,0,1-.647-.924l.3-.772a11.6,11.6,0,0,1,2.56-1.93,5.172,5.172,0,0,1,1.491-.714v-.016a2.866,2.866,0,0,0,1.034.225c.9,0,1.711-.609,2.467-1.8,1.085-1.674,2.223-2.562,2.959-3.755.322-.541.672-1.231,1.018-1.8l.439-.6.008-.022a4.1,4.1,0,0,0,2.028-.5l.624-.466c.007-.007,0-.03.394-.143a1.838,1.838,0,0,0,1.446-1.728,1.375,1.375,0,0,0-.556-1.187,2.166,2.166,0,0,0-1.27-.293l-.912.03-.38-.224-.1-.113a9.9,9.9,0,0,0,.559-2.606l-.075-.737a3.09,3.09,0,0,0-2.8-2.328l-.108.008V518.7a6.222,6.222,0,0,0-.947.211,6.747,6.747,0,0,1-1.574.157,13.118,13.118,0,0,0-2.544.308,6.982,6.982,0,0,0-1.341.346,1.781,1.781,0,0,0-1.258,1.494v.165c.015.669.154.947.143,1.173l-.068.45a9.753,9.753,0,0,0-.515,2.343l.014.218v.165c.031.519-.231.8-.284,1.736l.014.172v.1c-.022.39-.036.51-.469.985l-.7.45-.462-.675.023-.105a2.845,2.845,0,0,0,.247-1.142,2.6,2.6,0,0,0-.792-1.826c-.3-.307-1.292-1.238-2.254-2.176-.476-.467-.945-.939-1.3-1.323l-.424-.466-.11-.119v-.015l-.2-.549a3.5,3.5,0,0,1,.763-.308,5.279,5.279,0,0,0,2.282-.615l.154-.022c.171-.023.572.068,1.139.068a9.129,9.129,0,0,0,3.639-.812c.574-.361,1.321-.172,2.436-.848a2.156,2.156,0,0,0,1.047-1.722,1.758,1.758,0,0,0-.8-1.442,3.242,3.242,0,0,0-1.871-.451,21.393,21.393,0,0,0-3.946.549c-2.922.607-4.646.7-6.443,1.7-1,.631-4.037.841-5.755.827-.792-.015-.907-.151-.907-.151l-.1-.128-.638-.51-.432-.09a1.672,1.672,0,0,0-1.36.924,6.493,6.493,0,0,0-.672,1.5,3.946,3.946,0,0,0-.2,1.165,2.063,2.063,0,0,0,1.585,2.065,12.7,12.7,0,0,0,2.847.721l.015-.939.008.939h.138a4.648,4.648,0,0,0,2.393-.706,4.7,4.7,0,0,1,1.078-.466l.015.083v.068c-.079,1.5-.462,3.552-.469,4.89a3.124,3.124,0,0,1-.163,1.126l-.093.18-.007.015-.455.037-.758-.1-.271-.09-.079-.036c-.082-.054-.668-.819-1.423-1.5a5.706,5.706,0,0,0-3.172-1.562,18.451,18.451,0,0,1-2.571-.241l-.87-.18a1.968,1.968,0,0,0-1.107.315,1.62,1.62,0,0,0-.677,1.314l.008.166a14.076,14.076,0,0,0,.623,3.064l.117.57-.294.812c-.092.135-.469.309-1.136.309a6.778,6.778,0,0,1-1.21-.136,10.263,10.263,0,0,0-1.645-.18,4.226,4.226,0,0,0-1.27.2,7.2,7.2,0,0,0-1.224.451l-.62.383a1.319,1.319,0,0,0-.484,1l.143.578a4.321,4.321,0,0,0,2.077,2.126,28.273,28.273,0,0,0,3.395.834c.683.113,1.36.075,1.791.134l.259.068c.049.571.116,1.525.225,2.441a11.038,11.038,0,0,0,.448,2.485,4.44,4.44,0,0,1,.16.947l.253.8.924.706,1.007.134a3.178,3.178,0,0,0,1.569-.405c.264-.2,1.4-.306,2.809-.735a3.186,3.186,0,0,0,1.382-.767,2.3,2.3,0,0,0,.593-1.682v-.172c-.044-1-.271-1.818-.263-3.125a12.152,12.152,0,0,1,.071-1.367l.031-.707a15.022,15.022,0,0,0-.3-2.193l.116-.376c.316-.584.661-.751.89-.751l.564.217a1.187,1.187,0,0,1,.5.737,7.949,7.949,0,0,1,.162,1.99c0,.518-.008,1.1-.022,1.817l-.015.812c0,1.99.161,3.576.161,4.642,0,1.036-.194,1.366-.263,1.366a8.491,8.491,0,0,1-2.054.693c-1.131.307-2.659.72-4.608,1.412-3.7,1.328-4.92,2.147-7.259,2.613a14.583,14.583,0,0,1-2.531.188c-1.137,0-2.212-.083-3.083-.083a2.582,2.582,0,0,0-1.776.451,2.766,2.766,0,0,0-.683,1.262l-.162.4a2.088,2.088,0,0,0-.931,1.577l.308.968a2.074,2.074,0,0,0,1.46.8,10.384,10.384,0,0,0,1.863.159,21.384,21.384,0,0,0,2.385-.159,39.606,39.606,0,0,0,11.8-3.875,10.446,10.446,0,0,1,4.093-1.624l.405.113a1.86,1.86,0,0,1,.507,1.435,11.748,11.748,0,0,1-.177,1.645c-.315,1.884-1.107,4.1-1.19,5.439a.955.955,0,0,1-.241.712,1.956,1.956,0,0,1-1.175.519c-1.732.361-4.029,1.209-4.571,1.209a3.1,3.1,0,0,0-2.336,1.533,1.388,1.388,0,0,0-.345.885l.436.91a3.77,3.77,0,0,0,2.047.48c.277.015.679.031,1.137.031a13.356,13.356,0,0,0,3.515-.4l.7-.1a1.844,1.844,0,0,1,.891.2l.131.12c0,.683-.087,3.335-.087,5.844,0,.848.019,1.69.042,2.433a50.528,50.528,0,0,0,.455,5.085,14.583,14.583,0,0,0,.883,3.845,2.419,2.419,0,0,0,2.009,1.466h.036a2,2,0,0,0,1.7-1.255c.225-.428.341-.488.533-.585a7.72,7.72,0,0,1,1.051-.287,2.643,2.643,0,0,0,1.555-2.011,12.659,12.659,0,0,0,.4-2.924v-.405c0-2.133-.293-6.534-.293-8.291l.015-.277c.023-.9,0-2.195.03-3.395a15.272,15.272,0,0,1,.117-1.6l.1-.526.057-.157V560a3.276,3.276,0,0,1,2.892-1.607c2.143-.029,5.073-.263,6.811-1.443a2.056,2.056,0,0,0,.923-1.682,3.684,3.684,0,0,0-1.268-2.351,1.576,1.576,0,0,0-.917-.4l-.759-.053-.894.053c-.4.029-3.169.33-4.742.33l-.526-.007a7.388,7.388,0,0,1-1.06-.105v-.15l.03-.384.03-.706c-.008-1.39-.286-3.289-.278-4.4l.031-.556.017-.054a4.269,4.269,0,0,1,1.712-.578c.947-.165,2.047-.24,2.934-.339a11.085,11.085,0,0,0,2.02-.419,7.618,7.618,0,0,1,1.848-.33l.759-.039a18.556,18.556,0,0,1,3.316.414,14.141,14.141,0,0,0,1.685.068c1.007,0,2.191-.037,3.238-.068a6.544,6.544,0,0,0,2.1-.332l.9-.526a1.613,1.613,0,0,0,.515-1.148,2.168,2.168,0,0,0-.616-1.4" transform="translate(0 0.584)"/><path class="a" d="M659.448,506.093l-.939-.72a1.952,1.952,0,0,0-1.1-.286c-.552.008-1.006.12-1.314.105l-.331-.053-.116-.075-.015-.135a11.091,11.091,0,0,1,.155-1.255,31.885,31.885,0,0,1,1.344-5.151,3.092,3.092,0,0,0,.323-1.36l-.259-1.1a1.55,1.55,0,0,0-1.072-.834,10.967,10.967,0,0,1-2.475-.646,4.291,4.291,0,0,0-2-.36,8.683,8.683,0,0,0-1.22.082l-.3.023c-.415.014-.591-.135-1.283-.181l-1.131.391a1.587,1.587,0,0,0-.7,1.262,2.046,2.046,0,0,0,.368,1.066l.189.488a26.058,26.058,0,0,1,.491,3.395l-.022.429a32.1,32.1,0,0,0-.534,3.334,10.681,10.681,0,0,1-.353,2.66c-.14.45-.177.736-.221.8l-.338.3a26.617,26.617,0,0,1-4.461,2.119c-.485.15-1.033.262-1.555.457l-.763.414a1.44,1.44,0,0,0-.53,1.074,1.592,1.592,0,0,0,.339.954,7.069,7.069,0,0,0,4.829,2.486c1.033.127,1.754.173,2.164.249l.284.068a1.607,1.607,0,0,0,1.344.909h.037a3.138,3.138,0,0,0,1.671-.684,15.764,15.764,0,0,0,3.6-3.417c1.04-1.36,1.784-2.119,2.921-2.2,1.9-.083,3.264-1.007,3.493-2.365l.061-.661a2.26,2.26,0,0,0-.575-1.586" transform="translate(0.765 0.361)"/><path class="a" d="M663.322,533.814l-.14-.069a16.221,16.221,0,0,0-3.984-1.021,32.133,32.133,0,0,1-4.233-.962,2.585,2.585,0,0,1-1.1-.472l-.135-.158a6.055,6.055,0,0,1,1.484-2.194,10.226,10.226,0,0,0,2.436-3.161c.455-.961.338-1.037,1.672-1.668.69-.3,1.49-.547,2.189-.871l.991-.623a1.669,1.669,0,0,0,.6-1.262c-.023-.909-.324-1.615-.294-2.013l.03-.234c.042-.106.173-.225.6-.451a2.362,2.362,0,0,0,1.349-1.48l.06-.5a3.179,3.179,0,0,0-2.606-2.764,26.4,26.4,0,0,0-2.883-.646l-.447-.315a2.507,2.507,0,0,0-1.615-.661l-.147.007a3.38,3.38,0,0,0-2.606,2.141,11.306,11.306,0,0,1-1.693,2.41c-1.007,1.2-1.469,2.172-2.7,3.441a6.537,6.537,0,0,1-3.576,2.148,10.5,10.5,0,0,0-1.975.751,7.4,7.4,0,0,1-1.678.617c-1.683.435-2.269.374-3.5.623a3.966,3.966,0,0,0-1.735.916,2.487,2.487,0,0,0-.947,1.758l.47,1.065c1.057.88,2.422.947,3.666,1.195a13.579,13.579,0,0,1,1.993.473l.609.307.067.076.061.661c0,.187-.007.338-.815,1.481a60.938,60.938,0,0,1-4.867,6.682c-2.862,3.374-7.367,8.57-8.591,10.089a37.728,37.728,0,0,0-3.459,6.173l-.116.593a1.151,1.151,0,0,0,.545,1.022l.812.225a2.721,2.721,0,0,0,1.313-.37,8.044,8.044,0,0,0,1.015-.878l.571-.322a14.056,14.056,0,0,0,1.974-.181,2.9,2.9,0,0,0,2.194-1.389A11.682,11.682,0,0,1,636,550.442c1.385-1.711,1.606-2.426,2.5-3.313a20.23,20.23,0,0,0,2.651-2.786c.086-.1-.008-.052.5-.233a4.5,4.5,0,0,0,1.953-1.283,30.2,30.2,0,0,0,3.015-3.6,28.822,28.822,0,0,1,1.965-2.336,15.2,15.2,0,0,1,1.16-1.119l.4-.315.041-.008a4.761,4.761,0,0,1,1.822.707,23.485,23.485,0,0,0,4.461,1.223c1.892.405,3.736.6,4.829.939l1.094.188a2.428,2.428,0,0,0,2.215-1.457l.229-.955a2.73,2.73,0,0,0-1.513-2.282" transform="translate(0.617 0.558)"/><path class="a" d="M653.908,552.122h0A7.136,7.136,0,0,1,651,552.5c-.545,0-1.075-.007-1.562-.007a4.511,4.511,0,0,1-1.736-.217c-.161-.128-.161-.022-.21-.526l.023-.339c.008-.068,0-.128.4-.293a6.027,6.027,0,0,1,1.521-.255,9.528,9.528,0,0,0,3.609-1.263l.754-.225.369.225a2.936,2.936,0,0,1,.206,1.142,1.671,1.671,0,0,1-.47,1.374m-4.389,8.487-.74.15a2.2,2.2,0,0,1-2-1.209l.432-.556a2.7,2.7,0,0,0,.684-1.5,2.035,2.035,0,0,1,.244-.908l.147-.136h.008l.233.1a8.927,8.927,0,0,0,4.491,1.922l.307.488-.071.225a2.493,2.493,0,0,1-1.344.512,4.876,4.876,0,0,0-2.347.91Zm12.373-9.5c-.468-1.195-1.161-2.613-1.837-4.3a5.39,5.39,0,0,0-4.483-3.837l-1.04-.1c-2.129.015-3.391,1.2-4.375,1.6-1.191.557-2.685.5-4.038,1.308H646.1a8.579,8.579,0,0,1-1.429.119,7.571,7.571,0,0,0-2.163.249,1.592,1.592,0,0,0-.961.961,2.939,2.939,0,0,0-.147,1.014l.014.924c.008.818-.33,2.846-.337,4.228,0,1.367.239,2.577.278,3.223l.014.488c0,.473-.014,1.164-.014,1.862,0,.519.006,1.044.044,1.487a3.781,3.781,0,0,0,.21,1.247,2.44,2.44,0,0,0,2.43,1.39h.33c.3-.022.748-.06,1.214-.06a4.515,4.515,0,0,1,1.723.247,9.438,9.438,0,0,0,3.426.465,10.56,10.56,0,0,0,3.852-.555c.62-.3,1.43-.422,2.35-.856a5.136,5.136,0,0,0,2.479-2.711c1.138-2.576,1.844-3.966,2.386-4.461a2.454,2.454,0,0,0,.69-1.69,6.4,6.4,0,0,0-.6-2.246" transform="translate(0.784 0.891)"/><path class="a" d="M703.5,536.059a7.017,7.017,0,0,0-5.188-5.976,5.335,5.335,0,0,1-1.636-.737,5.342,5.342,0,0,0-2.232-.849,16.742,16.742,0,0,1-3.977-1.141c-.676-.278-.769-.571-.8-1l.217-.729c.653-1.276.953-2.155,1.168-2.216A5.373,5.373,0,0,0,692.312,522a.987.987,0,0,1,.7-.511,3.3,3.3,0,0,0,2.15-3.2l-.027-.382a1.671,1.671,0,0,0-1.036-1.353,4.33,4.33,0,0,0-1.592-.263l-.433.023h-.228a11.959,11.959,0,0,1-2.885-.55l-.99-.112a10.62,10.62,0,0,0-3.25.758c-1.8.609-3.627.917-5.328,1.593a13.733,13.733,0,0,1-3.289,1.187,4.038,4.038,0,0,0-2.077.781l-.821.706a1.662,1.662,0,0,0-.5,1.134l.012.1.258.871a1.7,1.7,0,0,0,.917.661l.545.21a5.357,5.357,0,0,1,1.855,1.878,4.474,4.474,0,0,0,2.876,2.17,1.7,1.7,0,0,1,.751.743c.3.458.585,1.066.887,1.631a4.633,4.633,0,0,0,3.377,2.313,19.757,19.757,0,0,1,2.662.961,15.189,15.189,0,0,0,3.3.437c1.356.081,2.86.111,4.048.111a7.154,7.154,0,0,1,2.122.211l.574.511.027.067-.232.405a2.076,2.076,0,0,1-.985.459c-1.7.375-3.147,1.134-4.624,1.18a9.73,9.73,0,0,0-3.184.878h-.022a2.55,2.55,0,0,1-1.224-.684,16.927,16.927,0,0,0-2.583-1.785,6.539,6.539,0,0,0-3.068-.91,2.693,2.693,0,0,0-2.523,1.425,7.259,7.259,0,0,0-.516,3.238c0,1.21.1,2.606.21,4.071.084.841.113,2.434.113,4.342,0,4.425-.17,10.65-.294,14.007-.067,1.7-.1,3.207-.1,4.567a54.376,54.376,0,0,0,.22,5.5l.022.405a34.8,34.8,0,0,1-.631,5.241,8.106,8.106,0,0,0-.281,1.563l.252.888.808.548.432.059a1.8,1.8,0,0,0,1.52-1.044,6.213,6.213,0,0,0,.557-1.591,7.24,7.24,0,0,1,1.659-2.532,4.214,4.214,0,0,0,1.686-2.778,3.518,3.518,0,0,1,.721-1.781,3.2,3.2,0,0,0,.977-2.117l-.083-.7-.053-.639a19.8,19.8,0,0,1,.207-2.328c.13-1.344,0-4.476.184-7.308.067-1.15.087-1.953.087-2.667,0-.563-.02-1.066-.02-1.606,0-.513.02-1.068.057-1.774a9.1,9.1,0,0,1,1.874-4.731c.277-.472,1.715-.745,2.656-.714.544,0,1.585.091,2.531.091a5.846,5.846,0,0,0,1.739-.211,6.189,6.189,0,0,1,1.475-.451l.109.03.823.188a3.227,3.227,0,0,0,1.6-.5" transform="translate(1.129 0.595)"/><path class="a" d="M788.812,536.3c-.06-.744-.149-1.469-.263-2.195-.069-.543-.173-1.083-.3-1.615-.059-.248-.107-.492-.154-.738-.072-.346-.143-.7-.232-1.048l-.039-.143c-.1-.314-.186-.636-.271-.95q-.1-.334-.222-.658c-.041-.116-.082-.234-.117-.356s-.069-.222-.107-.335c-.047-.134-.088-.272-.128-.423a1.685,1.685,0,0,0-.117-.256,2.16,2.16,0,0,1-.219-.494c-.118-.335-.249-.67-.386-.994l-.142-.347c-.061-.144-.118-.29-.178-.432a6.059,6.059,0,0,0-.376-.857c-.134-.227-.268-.462-.393-.693-.066-.118-.128-.239-.191-.365-.16-.317-.327-.636-.493-.942a13.7,13.7,0,0,0-.715-1.2,2.074,2.074,0,0,1-.161-.247c-.061-.1-.123-.2-.191-.308-.149-.211-.282-.432-.411-.66-.035-.068-.079-.142-.115-.2a5.1,5.1,0,0,0-.514-.728,2.682,2.682,0,0,1-.26-.356,5.132,5.132,0,0,0-.394-.545,4.773,4.773,0,0,1-.366-.492,1.922,1.922,0,0,0-.222-.3,2.367,2.367,0,0,0-.2-.172,1.642,1.642,0,0,1-.251-.246c-.32-.394-.662-.774-1.021-1.147a7.426,7.426,0,0,1-.616-.66l-.052-.053a2.431,2.431,0,0,0-.351-.31,2.661,2.661,0,0,1-.337-.288,2.986,2.986,0,0,0-.277-.256,2.22,2.22,0,0,1-.325-.328,2.732,2.732,0,0,0-.492-.424c-.09-.069-.181-.142-.266-.22s-.177-.134-.271-.2a2.277,2.277,0,0,1-.372-.3c-.244-.212-.5-.408-.753-.6s-.528-.4-.777-.614a8.445,8.445,0,0,0-1.239-.866c-.425-.265-.845-.523-1.265-.8-.358-.216-.714-.439-1.076-.647l-.087-.048a4.369,4.369,0,0,0-.455-.236,2.669,2.669,0,0,1-.328-.163l-.114-.06c-.29-.159-.588-.308-.9-.447-.2-.084-.391-.178-.588-.276s-.4-.2-.608-.29a2.718,2.718,0,0,1-.3-.133,3.816,3.816,0,0,0-.651-.267,4.38,4.38,0,0,1-.707-.3,5.255,5.255,0,0,0-.632-.27c-.162-.05-.32-.114-.479-.174a7.593,7.593,0,0,0-1.114-.368c-.212-.051-.418-.112-.629-.176a30.6,30.6,0,0,0-4.226-.946q-1.486-.223-2.988-.329c-.189-.012-.381-.03-.569-.057a30.626,30.626,0,0,0-3.78,0c-.365.04-.729.065-1.09.089-.769.037-1.539.123-2.3.231-.325.07-.655.124-.979.174a10.276,10.276,0,0,0-1.013.181c-.218.054-.444.1-.662.142a4.132,4.132,0,0,0-.572.12c-.128.05-.257.094-.386.138a4.179,4.179,0,0,1-.479.165c-.153.043-.309.092-.465.133a7.639,7.639,0,0,0-.92.269c-.487.2-.985.376-1.485.53a8.215,8.215,0,0,0-1.186.431l-.169.088c-.323.158-.652.305-.986.436a3.254,3.254,0,0,0-.832.417,3.262,3.262,0,0,1-.678.342c-.288.116-.572.247-.849.38a8.066,8.066,0,0,0-1.385.815,4.646,4.646,0,0,1-.619.388c-.138.08-.279.166-.418.252-.177.112-.352.235-.521.359-.129.084-.257.178-.389.27-.3.215-.6.446-.883.692-.159.129-.32.258-.484.386-.186.142-.364.29-.539.45-.053.053-.1.1-.16.146-.2.175-.409.335-.624.488-.428.345-.841.709-1.234,1.093l-.441.4c-.449.438-.878.9-1.284,1.383a8.818,8.818,0,0,1-.7.758,2.13,2.13,0,0,0-.458.582,2.448,2.448,0,0,1-.221.323,7.551,7.551,0,0,0-.952,1.195c-.143.208-.284.421-.441.617a5.071,5.071,0,0,0-.383.58,2.148,2.148,0,0,1-.4.564,4.2,4.2,0,0,0-.47.826c-.112.23-.23.456-.356.678s-.247.419-.372.633c-.134.244-.272.476-.418.712a11.366,11.366,0,0,0-.651,1.475l-.091.237c-.154.42-.326.826-.521,1.232a1.636,1.636,0,0,1-.087.174,1.789,1.789,0,0,0-.239.64,2.787,2.787,0,0,1-.394,1.048,1.536,1.536,0,0,0-.188.67,2.526,2.526,0,0,1-.042.279c-.035.11-.071.219-.112.325a2.735,2.735,0,0,0-.153.5,2,2,0,0,1-.146.449c-.047.117-.09.242-.13.364-.076.319-.147.654-.215.974l-.178.832c-.074.388-.134.782-.173,1.177a9.6,9.6,0,0,1-.175,1.094,4.924,4.924,0,0,0-.09,1.062,2.922,2.922,0,0,1-.069.8,1.452,1.452,0,0,0-.074.676c.009.136.013.27.009.406-.011,1.048-.006,2.094.018,3.145a17.123,17.123,0,0,0,.189,2.019c.043.339.087.676.123,1.017a24.3,24.3,0,0,0,.577,2.969l.232.856c.1.359.2.709.279,1.073a7.137,7.137,0,0,0,.293.937,1.243,1.243,0,0,1,.071.272,1.321,1.321,0,0,0,.141.456,4.645,4.645,0,0,1,.221.53c.055.149.115.3.176.443.106.29.213.578.311.874.082.237.17.476.263.714.244.545.487,1.087.723,1.636a7.858,7.858,0,0,0,.572.966l.068.1a3.869,3.869,0,0,1,.231.457,4.755,4.755,0,0,0,.347.64,9.09,9.09,0,0,1,.748,1.175,1.624,1.624,0,0,0,.372.666,3.162,3.162,0,0,1,.4.611c.055.1.113.194.176.286.175.228.352.446.539.666.328.418.641.85.931,1.3a2.556,2.556,0,0,0,.363.384,4.323,4.323,0,0,1,.4.412,14.04,14.04,0,0,0,.949,1.121c.167.158.336.319.512.482a5.307,5.307,0,0,1,.5.478,3.46,3.46,0,0,0,.761.694,2.265,2.265,0,0,1,.492.462,1.041,1.041,0,0,0,.173.184l.006.008c.241.194.487.372.738.54.321.239.627.486.925.737l.5.417c.512.366,1.027.717,1.549,1.074.068.036.137.086.208.125a11.548,11.548,0,0,0,1.42.812,3.041,3.041,0,0,1,.608.351,1.219,1.219,0,0,0,.242.142,3.321,3.321,0,0,1,.793.318,8.772,8.772,0,0,0,1.752.9c.129.052.255.1.38.148.535.224,1.07.418,1.618.59a30.685,30.685,0,0,0,3.628,1.138c.3.059.612.126.914.2a9.08,9.08,0,0,0,1.084.21,3.322,3.322,0,0,1,.453.114,4.636,4.636,0,0,0,.993.221c.433.022.864.075,1.292.124.411.04.824.084,1.234.122,1.5.06,2.983.074,4.477.03a24.864,24.864,0,0,0,2.917-.339l1.207-.222c.38-.062.761-.134,1.133-.221.649-.174,1.306-.32,1.965-.441a7.106,7.106,0,0,0,1.064-.31c.164-.062.334-.119.5-.168a7.459,7.459,0,0,0,1.225-.5c.159-.066.323-.123.49-.18a4.826,4.826,0,0,0,.539-.194c.205-.1.413-.192.622-.286l.991-.432c.427-.218.854-.435,1.28-.664.309-.165.62-.327.942-.475a11.168,11.168,0,0,0,1.513-.959,22.821,22.821,0,0,0,2.3-1.6c.225-.158.453-.32.679-.472a8.653,8.653,0,0,0,.763-.554c.115-.1.234-.2.349-.306.409-.345.815-.69,1.217-1.044.673-.629,1.327-1.269,1.962-1.941l.006-.006c.3-.282.582-.594.859-.9.1-.12.2-.244.3-.364.068-.08.13-.153.2-.226.294-.382.571-.774.831-1.173a3.461,3.461,0,0,1,.33-.442,2.717,2.717,0,0,0,.383-.562c.156-.276.325-.545.5-.8.115-.172.227-.348.335-.516.292-.534.593-1.062.917-1.566a4.115,4.115,0,0,0,.337-.649c.079-.148.161-.288.246-.43.115-.186.224-.378.332-.56.143-.3.271-.592.391-.887.068-.174.139-.347.216-.5l.022-.049a5.383,5.383,0,0,0,.315-.761,1.716,1.716,0,0,1,.143-.3,2.1,2.1,0,0,0,.186-.413c.079-.226.159-.449.249-.67.18-.447.346-.895.492-1.357.222-.711.419-1.424.611-2.147.08-.321.151-.65.2-.977.034-.222.079-.438.125-.66.064-.356.125-.709.181-1.064s.106-.686.178-1.032c.136-.925.226-1.861.276-2.793.03-1.225.03-2.441,0-3.661Q788.835,536.947,788.812,536.3Zm-10.559-10.126a13.8,13.8,0,0,1,2,.522,4.612,4.612,0,0,1,.888.655,1.98,1.98,0,0,1,.3.338,1.788,1.788,0,0,0,.284.328,1.821,1.821,0,0,1,.312.546c.12.274.234.55.338.822l.071.191a8.473,8.473,0,0,1,.374,1.38,1.413,1.413,0,0,0,.118.32.872.872,0,0,1,.128.476.3.3,0,0,1-.167.292.315.315,0,0,1-.345-.016,17.449,17.449,0,0,0-1.867-.566q-.418-.1-.829-.242a7.428,7.428,0,0,0-.861-.247,6.555,6.555,0,0,1-1.262-.284,5.314,5.314,0,0,0-1-.192l-.109-.016c-.449-.053-.893-.139-1.332-.234a15.135,15.135,0,0,0-2.023-.3,8.125,8.125,0,0,1-1.039-.161,7.624,7.624,0,0,0-.907-.146l-2.211-.214-.46-.049c-.447-.032-.893-.049-1.341-.063-.221-.014-.441-.029-.662-.06l-.356-.04c-.679-.029-1.355-.06-2.034-.072h-.008a4.96,4.96,0,0,0-.6,0,2.389,2.389,0,0,1-.552-.026,14.315,14.315,0,0,0-1.6-.1h-.208c-.3.014-.588.014-.885,0a13.309,13.309,0,0,0-1.36.038c-.249.012-.5.02-.753.024-.159,0-.315,0-.473.012-.343.005-.684.009-1.027.009a2.482,2.482,0,0,1-.711-.064.366.366,0,0,1-.131-.326,1.736,1.736,0,0,1,.073-.483c.059-.274.113-.542.16-.82.025-.168.058-.327.088-.48a8.57,8.57,0,0,0,.164-1.2.637.637,0,0,1,.441-.6c.391-.02.777-.028,1.171-.014.239.008.484.008.726,0,.569-.045,1.144-.074,1.715-.086.154,0,.307.012.463.026a2.808,2.808,0,0,0,.633.015,2.747,2.747,0,0,1,.808-.015c.645.033,1.291.054,1.936.033q1.086-.015,2.165,0h.676c.148,0,.293,0,.44,0a7.507,7.507,0,0,1,1.208.03,10.666,10.666,0,0,0,1.284.054c.3.02.59.052.886.094.267.038.54.063.806.084l.813.088,1.549.163C775.53,525.739,776.9,525.937,778.253,526.177Zm-15.985-10.495c.375,0,.749-.005,1.124-.012.293-.009.588-.009.878-.015.148-.006.293-.014.436-.032a4.8,4.8,0,0,1,1.015-.012,1.675,1.675,0,0,0,.648-.053,1.669,1.669,0,0,1,.466-.073c.157,0,.314,0,.474-.009a5.949,5.949,0,0,1,.77.009,1.562,1.562,0,0,0,.568-.021c.029,0,.06-.014.1-.014a1.283,1.283,0,0,1,.654.02,3.332,3.332,0,0,0,.851.006c.107,0,.205-.006.309-.006a1.238,1.238,0,0,1,.553.114,2.547,2.547,0,0,0,.374.125,1.831,1.831,0,0,1,.2.051,2.856,2.856,0,0,1,1.133.432c.156.124.314.247.473.37.309.233.613.472.911.725.077.08.157.158.228.246a4.616,4.616,0,0,0,.476.455,9.042,9.042,0,0,1,.919.83c.154.158.3.321.447.486.073.086.15.164.226.252l.075.081a1.761,1.761,0,0,1,.44.6v.01a.177.177,0,0,1-.063.176.708.708,0,0,1-.452.036c-.277-.03-.556-.05-.835-.068-.21-.012-.427-.032-.634-.057a5.038,5.038,0,0,0-.808-.1h-.159a1.428,1.428,0,0,1-.558-.043,4.941,4.941,0,0,0-1.175-.09l-.279-.014c-.2-.01-.416-.024-.622-.05s-.38-.029-.572-.037a5.759,5.759,0,0,1-.59-.03c-.113-.01-.231-.016-.346-.03-.257-.014-.505-.036-.761-.054l-.744-.068q-1.445-.106-2.9-.141a7.917,7.917,0,0,1-1.473-.1,2.46,2.46,0,0,0-.5.02c-.087.014-.179.018-.264.024-.412-.01-.823-.036-1.233-.084a2.733,2.733,0,0,0-.681-.02,3.476,3.476,0,0,1-.523.006c-.143,0-.287-.006-.433-.006q-.284,0-.567-.018a3.261,3.261,0,0,0-.337-.026,2.305,2.305,0,0,0-.336.051,1.556,1.556,0,0,1-.367.037c-.348-.023-.7-.037-1.04-.043h-.088a.646.646,0,0,1-.443-.1.4.4,0,0,1-.162-.32,1.9,1.9,0,0,1,.016-.478,5.641,5.641,0,0,0,.03-.615c0-.121,0-.24.011-.368.013-.182.042-.364.071-.548.019-.148.038-.3.053-.443a1.473,1.473,0,0,0,.008-.152.561.561,0,0,1,.178-.488.808.808,0,0,1,.55-.137c.123,0,.255-.014.38-.024a3.837,3.837,0,0,1,.862-.024h.356a11.486,11.486,0,0,0,1.432-.064C761.43,515.708,761.848,515.682,762.268,515.682ZM746.03,510.57a1.032,1.032,0,0,1,.463-.148c.372-.064.744-.138,1.108-.237a9.7,9.7,0,0,1,1.519-.305c.229-.024.459-.065.693-.1a2.773,2.773,0,0,1,.531-.071,4.613,4.613,0,0,0,.755-.06,2.621,2.621,0,0,1,.728-.044,3.835,3.835,0,0,0,.8-.048c.26-.012.517-.026.775-.026.292,0,.577-.01.867-.03a5.911,5.911,0,0,1,.733.026c.186.018.38.03.569.03.208.006.418.024.627.048.151.02.3.036.457.044.26.018.523.041.78.066.293.034.585.065.879.088a9.236,9.236,0,0,1,1.242.165,3.539,3.539,0,0,1,.555.166.329.329,0,0,1,.233.216.232.232,0,0,1-.2.168,3.916,3.916,0,0,1-.49.112,9.019,9.019,0,0,1-1.267.05,12.37,12.37,0,0,0-1.55-.022l-.022.008a9.077,9.077,0,0,1-1.171.055,3.525,3.525,0,0,0-.745-.018c-.566.024-1.132.038-1.7.038-.137,0-.272-.006-.405-.014a3.529,3.529,0,0,0-.614.023,1.126,1.126,0,0,1-.342.028,1.563,1.563,0,0,0-.239.018,7.011,7.011,0,0,1-1.166.014l-.05,0a2.9,2.9,0,0,0-.7-.012c-.234.042-.468.072-.71.094a1.034,1.034,0,0,1-.142-.014.783.783,0,0,0-.306-.008,5.594,5.594,0,0,1-1.149.044,4.551,4.551,0,0,0-.684.01h-.088a1.932,1.932,0,0,1-.451.014.241.241,0,0,1-.277-.159A.279.279,0,0,1,746.03,510.57Zm-6.278,7.917c0-.236,0-.474.013-.71.014-.112.029-.22.049-.339a3.2,3.2,0,0,0,.047-.436.9.9,0,0,1,.566-.686,2.834,2.834,0,0,1,.435.008,2.639,2.639,0,0,0,.334.027c.12,0,.241-.013.361-.021a4.679,4.679,0,0,1,.628-.014c.073.008.147.022.22.027a1.272,1.272,0,0,0,.524.008,4.114,4.114,0,0,1,.924-.047H744a2.148,2.148,0,0,0,.34-.04,1.69,1.69,0,0,1,.446-.037,2.678,2.678,0,0,0,.832,0,1.542,1.542,0,0,1,.493-.02,3.034,3.034,0,0,0,.637,0,2.028,2.028,0,0,1,.272-.012,7.217,7.217,0,0,1,.722.036,1.894,1.894,0,0,0,.465-.051,2.841,2.841,0,0,1,.4-.047c.346,0,.69,0,1.037.018a2.281,2.281,0,0,0,.37-.008,1.475,1.475,0,0,1,.7.068.864.864,0,0,1,.143.623v.062c-.009.1-.009.2-.02.29a3.335,3.335,0,0,0-.019.548,2.03,2.03,0,0,1-.087.715,1.484,1.484,0,0,0-.036.494v.09a.54.54,0,0,1-.355.5,1.421,1.421,0,0,1-.364-.026,1.039,1.039,0,0,0-.335-.012,7.167,7.167,0,0,1-.977.024l-.476-.006c-.943.006-1.887.029-2.826.06l-.177.008c-.376.03-.751.036-1.128.036-.26-.018-.523-.024-.786-.024-.142.006-.29.014-.435.024s-.259.014-.393.014a3.926,3.926,0,0,0-.623.043,8.907,8.907,0,0,1-1.769-.008.463.463,0,0,1-.315-.517C739.752,518.924,739.757,518.708,739.752,518.487Zm7.654,10.628c-.455-.023-.912-.029-1.366-.023h-.231c-.147,0-.292.005-.446.009a2.628,2.628,0,0,1-.334.014h-.139a3.789,3.789,0,0,0-.771.038,2.491,2.491,0,0,1-.931.042,2.578,2.578,0,0,0-.906-.054.689.689,0,0,0-.126.024.967.967,0,0,1-.388.03,2.238,2.238,0,0,0-.646-.016,3.947,3.947,0,0,1-.709,0,.614.614,0,0,1-.361-.142.917.917,0,0,1-.181-.55.534.534,0,0,0-.011-.08c-.008-.094-.011-.186-.011-.276a4.08,4.08,0,0,0-.03-.521c-.037-.529-.06-1.064-.06-1.6a.545.545,0,0,1,.47-.542h.351a7.362,7.362,0,0,0,.791,0,1.863,1.863,0,0,1,.279.014,2.462,2.462,0,0,0,.586-.014,1.744,1.744,0,0,1,.422-.032,1.064,1.064,0,0,0,.284-.027,2.1,2.1,0,0,1,1.01.046.491.491,0,0,0,.3-.024,1.568,1.568,0,0,1,.245-.043c.109.008.213.022.316.038a1.863,1.863,0,0,0,.49.029l.176-.035a3.756,3.756,0,0,1,.711-.086,2.822,2.822,0,0,1,.411.023,2.584,2.584,0,0,0,.378.014,5,5,0,0,1,1.034-.037,3,3,0,0,0,.846.009c.186-.021.37-.04.558-.046a1.176,1.176,0,0,1,.5.046,1.359,1.359,0,0,1,.085.643,2.72,2.72,0,0,1-.085.742,2.053,2.053,0,0,0-.148.76,7.912,7.912,0,0,1-.186,1.075.629.629,0,0,1-.476.531A7.726,7.726,0,0,1,747.407,529.116Zm.372,5.89a.981.981,0,0,1-.1.531c-.088.2-.178.4-.279.592-.022.047-.042.084-.064.129a2.134,2.134,0,0,0-.117.339,3.123,3.123,0,0,1-.221.566c-.206.394-.4.8-.578,1.206-.024.063-.05.12-.069.175a3.323,3.323,0,0,1-.265.592.633.633,0,0,1-1.056.232,3.975,3.975,0,0,1-.457-.38,3.52,3.52,0,0,0-.263-.24,3.594,3.594,0,0,1-.312-.3c-.1-.1-.219-.21-.333-.3a3.789,3.789,0,0,1-.638-.641,1.03,1.03,0,0,0-.282-.326.954.954,0,0,1-.134-.122,2.226,2.226,0,0,1-.186-.34,3.142,3.142,0,0,0-.229-.4,2.594,2.594,0,0,1-.176-.308,1.968,1.968,0,0,0-.217-.37.776.776,0,0,1-.2-.364.347.347,0,0,1,.08-.314.82.82,0,0,1,.574-.118,2.692,2.692,0,0,0,.624,0,4.466,4.466,0,0,1,.923-.022c.44.012.883.012,1.327-.018.134-.005.27-.013.41-.005s.254.005.383,0c.054-.014.107-.014.161-.028a5.418,5.418,0,0,1,.868-.036l.084.006a3.014,3.014,0,0,1,.466.044A.358.358,0,0,1,747.779,535.006ZM731.331,552.8a12.277,12.277,0,0,1-1.07.612l-.358.168c-.572.284-1.152.556-1.744.8a.408.408,0,0,1-.459-.286c-.025-.052-.049-.09-.075-.134a3.234,3.234,0,0,0-.4-.619,3.883,3.883,0,0,1-.438-.984,8.524,8.524,0,0,0-.435-.9,3.962,3.962,0,0,1-.233-.613c-.053-.168-.115-.34-.183-.5-.16-.436-.3-.875-.439-1.318-.052-.168-.1-.334-.159-.494-.15-.542-.284-1.1-.391-1.653a1.94,1.94,0,0,0-.123-.36,1.549,1.549,0,0,1-.169-.609,3.485,3.485,0,0,0-.154-.794,4.972,4.972,0,0,1-.159-.8,1.055,1.055,0,0,0-.061-.36,1.58,1.58,0,0,1-.076-.347c-.027-.26-.038-.52-.045-.78,0-.246-.016-.484-.037-.724l-.019-.068a3.954,3.954,0,0,1-.11-.876c0-.142,0-.29.006-.435a5.35,5.35,0,0,0-.006-.816,31.294,31.294,0,0,1,.1-3.55,18.029,18.029,0,0,1,.6-3.561,2.606,2.606,0,0,0,.047-.27,1.888,1.888,0,0,1,.1-.482c.148-.454.276-.909.38-1.371a18.786,18.786,0,0,1,.606-1.88c.138-.353.26-.7.363-1.06l.011-.044a2.478,2.478,0,0,1,.159-.338,5.96,5.96,0,0,0,.317-.655,10.518,10.518,0,0,1,.6-1.165c.043-.08.084-.16.12-.246.118-.264.243-.535.375-.795a14.883,14.883,0,0,1,.913-1.443c.138-.2.269-.394.4-.588.346-.506.71-1,1.084-1.48.107-.143.211-.285.315-.419a8.17,8.17,0,0,1,.781-.827l.09-.086c.409-.418.81-.85,1.195-1.294a4.479,4.479,0,0,1,.568-.541.873.873,0,0,1,.429-.25.188.188,0,0,1,.137.15,1.2,1.2,0,0,1,.049.349q0,.861-.068,1.71a1.709,1.709,0,0,0,.019.492c.016.148.024.282.026.417,0,.188-.01.372-.016.556-.024.484-.029.969-.029,1.447l.035,1.02.071,2.169c.009.166.014.334.016.506a8.763,8.763,0,0,0,.072,1.192,4.809,4.809,0,0,1,.06,1.259,1.807,1.807,0,0,0,.061.745c.029.148.052.3.071.45a6.717,6.717,0,0,0,.118.708,11.44,11.44,0,0,1,.164,1.4,4.052,4.052,0,0,0,.175.776c.014.056.03.114.051.174a2.735,2.735,0,0,1,.065.492,1.692,1.692,0,0,0,.077.456,5.49,5.49,0,0,1,.355,1.071,3.9,3.9,0,0,0,.392,1.073,1.844,1.844,0,0,1,.168.5,1.548,1.548,0,0,0,.1.337l.037.062c.1.16.192.332.279.5a14.771,14.771,0,0,0,.947,1.7,10.558,10.558,0,0,0,.968,1.265,5.96,5.96,0,0,1,.608.688c.189.225.378.46.572.682a5.29,5.29,0,0,0,.788.752c.074.06.154.124.227.186.142.134.279.268.41.41a6.937,6.937,0,0,0,.686.66,1.963,1.963,0,0,1,.619.776.32.32,0,0,1-.016.252,2.326,2.326,0,0,1-.229.312l-.069.082a8.784,8.784,0,0,1-.971.968c-.139.138-.271.272-.394.421a.616.616,0,0,1-.227.208,1.633,1.633,0,0,0-.372.307c-.067.061-.136.124-.2.185l-.067.054c-.22.192-.449.38-.678.558q-.373.267-.736.535c-.2.156-.408.309-.61.454l-.151.1c-.355.27-.73.523-1.106.756a.554.554,0,0,0-.2.118c-.047.03-.093.06-.14.1-.35.236-.715.46-1.084.668a5.7,5.7,0,0,0-.5.306,4.035,4.035,0,0,1-.443.284c-.11.07-.216.143-.315.214a2.215,2.215,0,0,1-.429.268c-.327.172-.647.356-.953.556-.162.11-.326.2-.5.306Zm8.687,6.072c-.06.042-.118.094-.181.139a9.809,9.809,0,0,0-.785.632c-.518.374-1.031.753-1.566,1.109a1.106,1.106,0,0,0-.393.314.582.582,0,0,1-.252.18c-.09.05-.186.094-.276.148a13.471,13.471,0,0,0-1.141.725l-.011.013a1.12,1.12,0,0,1-.772.29,1.059,1.059,0,0,1-.523-.323c-.077-.064-.156-.132-.235-.2-.126-.1-.253-.206-.378-.31a1.67,1.67,0,0,0-.314-.246,1.324,1.324,0,0,1-.29-.32,1.809,1.809,0,0,0-.234-.272,9.848,9.848,0,0,1-.719-.784c-.031-.032-.07-.07-.1-.108a1.768,1.768,0,0,1-.205-.256.268.268,0,0,1-.008-.28,1.677,1.677,0,0,1,.591-.5c.517-.284,1.02-.594,1.51-.915l.134-.11a5.421,5.421,0,0,1,.947-.654,2.424,2.424,0,0,0,.512-.344,3.021,3.021,0,0,1,.427-.3c.216-.128.43-.264.638-.41.136-.092.277-.18.422-.266.1-.048.186-.112.281-.166l.357-.229c.322-.2.648-.4.966-.606.265-.184.533-.362.807-.54.241-.147.481-.308.715-.468.134-.092.262-.19.394-.292a2.828,2.828,0,0,1,.465-.32,9,9,0,0,0,.872-.586c.1-.074.214-.146.32-.218.534-.37,1.045-.764,1.542-1.184.18-.161.355-.32.53-.484a4.332,4.332,0,0,1,.558-.475,3.819,3.819,0,0,0,.684-.642c.028-.032.053-.062.078-.094a3.274,3.274,0,0,1,.626-.621,1.981,1.981,0,0,0,.417-.36l.1-.09a3.142,3.142,0,0,1,.706-.476,2.563,2.563,0,0,1,.83-.174,9.4,9.4,0,0,1,1.025.043,1.156,1.156,0,0,1,.383.134.777.777,0,0,0,.2.084.739.739,0,0,1,.518.306.638.638,0,0,1-.123.58,3.122,3.122,0,0,0-.213.288,5.538,5.538,0,0,1-.512.686,4.969,4.969,0,0,0-.337.454,1.794,1.794,0,0,1-.3.4,3.926,3.926,0,0,0-.44.5c-.082.11-.164.222-.258.335-.1.089-.2.184-.3.276q-.256.221-.482.46l-.375.409c-.224.236-.446.481-.671.729-.15.149-.305.3-.459.434-.287.267-.566.549-.84.833a5.915,5.915,0,0,1-.591.5,5.407,5.407,0,0,0-.476.411,5.085,5.085,0,0,1-.543.477,5.079,5.079,0,0,0-.4.346,2.366,2.366,0,0,0-.2.178,5.2,5.2,0,0,1-.569.486l-.141.09a1.993,1.993,0,0,0-.476.38,2.114,2.114,0,0,1-.339.308,1.677,1.677,0,0,0-.285.235,2.348,2.348,0,0,1-.29.229c-.052.038-.1.078-.151.116a1.926,1.926,0,0,0-.276.243C740.1,558.792,740.059,558.835,740.017,558.87Zm12.218,2.952-.053.048a3.108,3.108,0,0,1-.241.22,1.212,1.212,0,0,0-.233.212c-.151.162-.3.329-.463.482-.05.045-.1.1-.148.154a1.238,1.238,0,0,0-.117.143,3.735,3.735,0,0,1-.545.556,4.62,4.62,0,0,0-.671.588,2.016,2.016,0,0,1-.476.456,2.8,2.8,0,0,0-.467.394l-.042.038a3.183,3.183,0,0,1-.547.522,1.064,1.064,0,0,0-.306.3l-.036.052a2.356,2.356,0,0,1-.271.2.43.43,0,0,0-.082.061.7.7,0,0,1-.139.1.541.541,0,0,0-.162.142.412.412,0,0,1-.145.134,7.99,7.99,0,0,0-.819.638l-.069.047a2.154,2.154,0,0,1-.51.462l-.011.006a1.864,1.864,0,0,1-.935.21,2.1,2.1,0,0,1-.922-.17.984.984,0,0,0-.2-.067,1.414,1.414,0,0,1-.455-.223,1.209,1.209,0,0,0-.43-.218,2.331,2.331,0,0,1-.808-.3c-.065-.03-.136-.062-.205-.1a2.873,2.873,0,0,0-.424-.154,2.057,2.057,0,0,1-.468-.2,1.783,1.783,0,0,0-.186-.1.928.928,0,0,1-.21-.12.189.189,0,0,1-.067-.192.737.737,0,0,1,.222-.364,3.608,3.608,0,0,1,.5-.374c.151-.1.3-.206.463-.3a6.659,6.659,0,0,0,.72-.5c.088-.078.178-.153.271-.222a1.783,1.783,0,0,0,.331-.27c.058-.044.109-.084.168-.134.268-.223.552-.438.848-.64l.049-.028a2.005,2.005,0,0,0,.567-.408,1.6,1.6,0,0,1,.17-.158,1.287,1.287,0,0,0,.287-.282,1.74,1.74,0,0,1,.4-.308.625.625,0,0,1,.1-.066,1.157,1.157,0,0,1,.153-.108,1.712,1.712,0,0,0,.285-.21c.257-.238.518-.478.785-.7.164-.14.324-.28.484-.422.512-.478,1.015-.964,1.5-1.461l.388-.39c.275-.276.532-.56.783-.852.128-.155.262-.312.4-.46.369-.347.729-.715,1.076-1.085.29-.392.6-.774.925-1.146.388-.425.764-.862,1.122-1.317a3.079,3.079,0,0,1,.528-.53,6.145,6.145,0,0,0,.713-.839,5.968,5.968,0,0,1,.563-.61,5.918,5.918,0,0,0,.588-.647,3.026,3.026,0,0,1,.318-.368l.087-.1a.727.727,0,0,1,.78-.192c.079.03.161.069.241.1a1.84,1.84,0,0,1,.476.23,2.457,2.457,0,0,0,.529.282,2.135,2.135,0,0,1,.3.134,3.524,3.524,0,0,1,.82.762.611.611,0,0,1-.115.586c-.063.09-.127.186-.2.276a1.993,1.993,0,0,0-.247.37c-.153.286-.311.556-.478.821-.052.085-.1.176-.154.258a3.12,3.12,0,0,0-.3.542,2.292,2.292,0,0,1-.351.455,2.522,2.522,0,0,0-.238.278,1.344,1.344,0,0,1-.075.123,2.693,2.693,0,0,1-.325.451,2.181,2.181,0,0,0-.191.29,1.732,1.732,0,0,1-.178.258c-.076.1-.16.2-.242.284-.1.112-.194.222-.281.333a3.575,3.575,0,0,0-.279.47,1.091,1.091,0,0,1-.255.276.645.645,0,0,0-.117.112,2.3,2.3,0,0,0-.452.564,1.511,1.511,0,0,1-.32.426,2.251,2.251,0,0,0-.227.279c-.046.06-.1.121-.145.176-.075.088-.151.168-.222.256a4.24,4.24,0,0,1-.292.325l-.118.111a1.49,1.49,0,0,0-.314.323,3.958,3.958,0,0,1-.57.656C752.5,561.575,752.362,561.7,752.235,561.822Zm14.757,4.683a1.006,1.006,0,0,1-.423.318c-.407.21-.815.4-1.231.592l-.3.135c-.383.11-.766.249-1.141.4l-.175.067a9.873,9.873,0,0,1-1.215.362l-.215.047c-.231.053-.461.11-.693.169l-.1.031a3.325,3.325,0,0,1-.723.18,5.9,5.9,0,0,0-.747.178,10.6,10.6,0,0,1-1.13.283c-.745.1-1.494.192-2.247.258a15.425,15.425,0,0,1-1.686.062c-.238,0-.476,0-.714.008l-.181.006a3.367,3.367,0,0,1-1.108-.037.185.185,0,0,1-.047-.253,1.035,1.035,0,0,1,.285-.382,5.193,5.193,0,0,0,.741-.632,5.45,5.45,0,0,1,.4-.372c.148-.135.29-.269.433-.408a3.538,3.538,0,0,1,.425-.48,4.384,4.384,0,0,1,.4-.355c.032-.025.069-.058.1-.088a1.837,1.837,0,0,0,.15-.147,1.69,1.69,0,0,1,.192-.2,6.147,6.147,0,0,0,.588-.64.363.363,0,0,1,.093-.1.581.581,0,0,0,.109-.133,2.29,2.29,0,0,1,.476-.468.774.774,0,0,0,.189-.192.357.357,0,0,1,.085-.1,6.262,6.262,0,0,0,.462-.507,5.151,5.151,0,0,0,.351-.431,5.063,5.063,0,0,1,.5-.6.9.9,0,0,0,.213-.251c.03-.037.063-.09.1-.14a5.2,5.2,0,0,1,.461-.555l.024-.025c.066-.084.128-.173.188-.257a2.993,2.993,0,0,1,.226-.3,11.259,11.259,0,0,0,1.045-1.353c.157-.24.323-.458.5-.687l.03-.042c.208-.29.42-.574.637-.848a4.065,4.065,0,0,1,.271-.32,3.222,3.222,0,0,0,.5-.67,4.84,4.84,0,0,1,.912-1.085.8.8,0,0,1,.315-.146.253.253,0,0,1,.221.07,1.774,1.774,0,0,1,.428.6,1.737,1.737,0,0,0,.229.386c.027.029.047.064.072.094l.019.037a4.318,4.318,0,0,1,.364.755,5.2,5.2,0,0,0,.189.52c.024.064.052.13.076.19.022.077.047.136.071.2a6.572,6.572,0,0,1,.253.78c.037.176.088.352.141.535.03.1.061.2.085.305s.045.184.069.285c.069.266.123.532.167.8a1.734,1.734,0,0,0,.082.333,1.528,1.528,0,0,1,.077.334c.008.31.019.617.036.921l.008.08c.019.2.043.4.074.6.035.219.063.434.079.652.005.1.011.2.019.294a5.711,5.711,0,0,1,.033.9A.87.87,0,0,1,766.992,566.505Zm12.581-11.14c-.117.188-.244.38-.373.566-.068.1-.138.21-.2.319q-.268.426-.578.845a2.391,2.391,0,0,0-.139.2,1.443,1.443,0,0,1-.231.28,5.765,5.765,0,0,0-.517.746l-.069.11a2.663,2.663,0,0,1-.4.388,2.926,2.926,0,0,0-.227.2,5.832,5.832,0,0,0-.364.462,3.24,3.24,0,0,1-.216.294.93.93,0,0,1-.221.186,1.206,1.206,0,0,0-.3.278,7.138,7.138,0,0,1-.681.684c-.167.146-.325.306-.482.462a3.737,3.737,0,0,1-.319.276.953.953,0,0,0-.236.249,2.1,2.1,0,0,1-.473.4c-.08.054-.162.111-.239.172a.661.661,0,0,1-.572.317.21.21,0,0,1-.156-.16,1.458,1.458,0,0,1-.041-.32c0-.07-.006-.137-.008-.207a16.276,16.276,0,0,0-.392-2.081c-.062-.218-.119-.434-.172-.638a8.837,8.837,0,0,0-.273-.956,2.8,2.8,0,0,1-.178-.613,2.576,2.576,0,0,0-.069-.3,2.715,2.715,0,0,0-.177-.364,2.458,2.458,0,0,1-.23-.5,6.045,6.045,0,0,0-.55-1.085c-.03-.052-.059-.1-.088-.148a3.907,3.907,0,0,0-.208-.358c-.1-.173-.2-.351-.284-.531a8.275,8.275,0,0,0-.594-.96l-.087-.128c-.088-.14-.173-.294-.258-.434a2.4,2.4,0,0,0-.288-.424,3.359,3.359,0,0,1-.38-.411c-.052-.059-.1-.1-.142-.155a5.91,5.91,0,0,1-.452-.542,6.255,6.255,0,0,0-.671-.8c-.1-.1-.2-.182-.3-.282-.176-.176-.359-.35-.551-.51-.333-.272-.656-.558-.963-.862a1.037,1.037,0,0,0-.117-.1.521.521,0,0,1-.255-.342,2.773,2.773,0,0,1,.471-1c.164-.237.317-.476.459-.728.075-.136.152-.271.222-.418a3.594,3.594,0,0,1,.227-.408c.148-.186.3-.382.435-.58a10.683,10.683,0,0,1,.838-.936c.079-.074.148-.149.221-.22a.519.519,0,0,1,.359-.17,1.787,1.787,0,0,1,.443.048h.033a2.088,2.088,0,0,1,.75.371.74.74,0,0,0,.068.046,4.677,4.677,0,0,0,.7.425,3.048,3.048,0,0,1,.307.182,1.656,1.656,0,0,0,.27.166,3.335,3.335,0,0,1,.479.364c.153.134.315.255.479.388.107.077.216.169.328.239a3.832,3.832,0,0,1,.539.418,4.431,4.431,0,0,0,.774.728,6.522,6.522,0,0,1,.868.666l.065.062c.349.32.693.641,1.027.974l.722.695c.349.331.7.66,1.032.993.227.238.457.456.693.664a1.471,1.471,0,0,1,.312.422.764.764,0,0,0,.156.24,10.106,10.106,0,0,1,.712.842l.074.1c.143.186.284.378.418.574a1.228,1.228,0,0,1,.246.506,1.327,1.327,0,0,0,.078.327.718.718,0,0,1-.085.8Zm4.453-15.082a2.007,2.007,0,0,0-.03.5c0,.048,0,.085.006.134-.006.086-.009.168-.017.248a1.4,1.4,0,0,0,0,.463,1.053,1.053,0,0,1-.043.632,3.126,3.126,0,0,0-.08.846,2.909,2.909,0,0,1-.087.513,2.954,2.954,0,0,0-.071.386c-.011.068-.022.145-.028.216a1.548,1.548,0,0,1-.085.446,1.424,1.424,0,0,0-.073.515c0,.076,0,.148-.011.232a2.786,2.786,0,0,0-.051.274,3.567,3.567,0,0,1-.127.568,6,6,0,0,0-.174.688c-.04.2-.087.394-.142.592a3.089,3.089,0,0,0-.1.384,1.545,1.545,0,0,1-.211.587.331.331,0,0,1-.26.1.322.322,0,0,1-.239-.142c-.087-.1-.177-.2-.265-.312-.134-.16-.276-.319-.425-.474-.122-.114-.232-.24-.345-.364-.079-.09-.158-.182-.24-.268-.211-.186-.411-.382-.606-.584-.224-.23-.45-.466-.67-.7l-.323-.348a4.422,4.422,0,0,0-.561-.457,3.313,3.313,0,0,1-.284-.221c-.053-.061-.1-.11-.154-.173a2.341,2.341,0,0,0-.433-.415,3.1,3.1,0,0,1-.465-.379.609.609,0,0,0-.1-.078c-.171-.148-.346-.29-.532-.422a1.9,1.9,0,0,1-.227-.17q-.379-.352-.794-.669c-.061-.033-.123-.078-.188-.115a3.336,3.336,0,0,1-.6-.412,2.237,2.237,0,0,0-.328-.27,1.613,1.613,0,0,1-.238-.175,3.775,3.775,0,0,0-.458-.294,2.41,2.41,0,0,1-.279-.162c-.043-.034-.09-.072-.137-.1a6.622,6.622,0,0,0-.686-.488c-.49-.268-.981-.558-1.451-.86l-.025-.014a22.59,22.59,0,0,0-2.154-1.07,3.91,3.91,0,0,0-1.879-.259,7.017,7.017,0,0,0-1.738.456,7.692,7.692,0,0,0-1.563,1.119,11.247,11.247,0,0,0-1.234,1.4c-.253.345-.5.686-.747,1.021l-.611.838c-.312.45-.64.895-.971,1.328-.077.088-.148.188-.216.279s-.133.19-.2.29a1.322,1.322,0,0,1-.412.516c-.013,0-.03.014-.043.014a.715.715,0,0,1-.745-.05c-.139-.049-.281-.1-.425-.151a5.012,5.012,0,0,1-.692-.262,5.306,5.306,0,0,0-.8-.29c-.157-.057-.315-.11-.472-.159l-.015-.011c-.543-.181-1.082-.379-1.61-.586-.191-.077-.386-.143-.585-.2-.165-.053-.331-.11-.487-.174a5.376,5.376,0,0,0-.8-.282c-.165-.057-.324-.112-.487-.177a6.245,6.245,0,0,1-1.177-.528.762.762,0,0,1-.29-.492,1.276,1.276,0,0,1,.221-.813l.006-.014c.243-.466.479-.936.705-1.418.077-.152.157-.306.247-.454a3.649,3.649,0,0,0,.229-.468,2.073,2.073,0,0,1,.179-.38,2.716,2.716,0,0,0,.133-.265c.022-.07.046-.133.071-.2a5.427,5.427,0,0,1,.3-.71,9.754,9.754,0,0,0,.388-.917c.056-.128.11-.264.165-.4a3.4,3.4,0,0,1,.782-1.21.772.772,0,0,1,.6-.186.473.473,0,0,0,.1.014c.118-.006.242-.014.362-.026s.269-.016.4-.024c.082.008.165.008.244.014a4.3,4.3,0,0,0,.665-.014c.377-.024.755-.03,1.13-.018h.585c.189.008.383.008.575.008.34.01.675.01,1.013.01.273,0,.544.014.815.02.154,0,.3,0,.454,0h.723c.1,0,.2,0,.3-.01a5.794,5.794,0,0,1,1.042-.014,5.212,5.212,0,0,0,.938.03c.1-.006.187-.006.28-.006.2.012.39.02.58.039.345.034.689.047,1.037.047a6.736,6.736,0,0,1,.807,0,.78.78,0,0,0,.181.014l.167.01c.364.028.728.037,1.092.052a1.91,1.91,0,0,1,.34.042,3.178,3.178,0,0,0,.547.054,10.638,10.638,0,0,1,1.4.172c.586.1,1.175.163,1.77.2a2.964,2.964,0,0,1,.658.112c.074.022.142.036.219.052.273.058.547.094.826.125a2.924,2.924,0,0,1,.342.077,2.39,2.39,0,0,0,.5.121,3.581,3.581,0,0,1,.929.224,2.76,2.76,0,0,0,.651.15c.15.024.3.051.446.089l.492.133,1.394.394a9.249,9.249,0,0,1,.962.345,4.106,4.106,0,0,0,.709.227,2.165,2.165,0,0,1,.882.308c.03.02.06.03.09.054a4.035,4.035,0,0,0,.564.2c.077.024.148.052.227.074a2.341,2.341,0,0,1,.3.193,2.126,2.126,0,0,0,.646.35.807.807,0,0,1,.6.693A5.238,5.238,0,0,1,784.025,540.283Z" transform="translate(1.633 0.476)"/><path class="a" d="M838.9,516.448a5.85,5.85,0,0,0-2.1-3.809,18.635,18.635,0,0,0-4.773-2.914,8.124,8.124,0,0,1-1.262-.5l-.133-.083.024-.06a2.607,2.607,0,0,1,.724-.909,3.349,3.349,0,0,0,1-1.052l.192-.887a4.247,4.247,0,0,0-2.032-3.267,9.734,9.734,0,0,0-4.72-1.84h-.117c-.368.008-.653-.2-1.058-.69l-.639-.766a1.73,1.73,0,0,0-1.27-.631l-.534.105-.792.789-.155.826c.008.592.125,1.14.141,1.592v.075c0,.984-.538,1.419-.921,2.343l-.165.856.018.4c.015.09,0,.525-1.312,2.395-1.291,1.841-8.006,12.1-8.888,13.348a18.005,18.005,0,0,1-1.506,1.765l-.746.878a1.942,1.942,0,0,0-.463,1.157,1.549,1.549,0,0,0,.852,1.343,2.653,2.653,0,0,0,1.187.257l.875-.121c.462-.143,2.09-.27,3.47-.412.638-.075,1.554-.113,2.406-.256a3.67,3.67,0,0,0,2.4-1.112,52.492,52.492,0,0,0,4.713-6.075c.7-1.173,1.657-2.734,2.569-4.109a16.766,16.766,0,0,1,2.246-2.876c.577-.465.83-.5.885-.5a3.65,3.65,0,0,1,.984.5,3.742,3.742,0,0,1,1.785,1.885,4.654,4.654,0,0,0,1.568,2.93,23.5,23.5,0,0,0,2.423,1.163,1.866,1.866,0,0,0,1.232.429,1.991,1.991,0,0,0,1.284-.466,1.839,1.839,0,0,0,.631-1.389Z" transform="translate(2.595 0.414)"/><path class="a" d="M821.969,556.841c-.24.361-.606.39-1.576.751a6.862,6.862,0,0,1-1.792.616l-.852-.435a4.055,4.055,0,0,1,.478-1.247,6.329,6.329,0,0,1,.632-.977l.573-.3h.1a2.893,2.893,0,0,1,1.907.848l.492.526.083.157Zm3.487-15.178a9.216,9.216,0,0,1,1.359.06l.155.044.086.436-.037.173a5.109,5.109,0,0,0-1.2,1.375,2.771,2.771,0,0,1-1.263.947c-1.976.834-2.407,1.2-3.267,1.239l-.115.006-.272-.052c-.007,0-.138-.143-.146-.737,0-1.278.161-1.8.394-1.946.345-.352,1.168-.464,2.039-1.119l.45-.322a3.6,3.6,0,0,1,1.109-.1h.049Zm8.843-11.124a4.885,4.885,0,0,0-2.614-4.544,7.187,7.187,0,0,1-1.663-.766,3.806,3.806,0,0,1-1.006-2.051,5.779,5.779,0,0,0-1.379-2.726,2.741,2.741,0,0,0-1.7-.811l-.1-.007a1.253,1.253,0,0,0-1.153.87l-.116.812a13.711,13.711,0,0,0,.116,1.4,8.6,8.6,0,0,1,.068,1.1,4.415,4.415,0,0,1-.184,1.473c-.3.675-.53.953-.917,1.78a6.929,6.929,0,0,1-2.737,2.358c-1.454.6-2.591,1.194-3.465,1.436-.455.126-.879.223-1.292.382l-.668.4a1.383,1.383,0,0,0-.432,1l.044.346a1.918,1.918,0,0,0,1.284,1.239c.432.158.83.3,1.018.4a4.319,4.319,0,0,0,2.137.66l.761-.075a6.982,6.982,0,0,0,2.291-1.172c.737-.5,1.455-1.073,1.931-1.367.538-.354.932-.668,1.239-.864l.8-.271h.052c.2-.074,1.146.722,1.615,1.406a3.458,3.458,0,0,1,.609,1.854l-.037.413a1.9,1.9,0,0,1-1.263,1.171,9.123,9.123,0,0,0-5.091,2c-1.694,1.615-2.469,2.366-2.855,2.351h-.083c-.225.059-.777-.405-1.032-.82l-.538-.81a1.976,1.976,0,0,0-1.57-.842l-.638.12a1.96,1.96,0,0,0-1.4,1.93c.016.542.133,1,.14,1.188v.008c.016.494-.419,2.356-.581,3.5-.123,1.015-.462,2.088-1.055,4.567a41.722,41.722,0,0,1-1.731,5.55c-.462,1.271-.751,2.239-1.484,2.682a4.46,4.46,0,0,0-1.916,3.92v.188a15.237,15.237,0,0,0,.924,4.071c.531,1.615,2.069,2.718,3.722,3.5,1.16.48,1.615.939,2.662.977l.73-.113a2.45,2.45,0,0,0,1.355-1.02c.268-.391.436-.745.7-1.126a5.683,5.683,0,0,1,2.215-1.586,9.613,9.613,0,0,0,3.2-3.109c.7-1.09.69-1.292,1.844-1.675l.461-.052a9.018,9.018,0,0,1,1.447.151,10.469,10.469,0,0,0,1.247.18l.738.142a2.958,2.958,0,0,0,.962.225l.89-.361.409-.7.106-.81a5.478,5.478,0,0,0-.7-2.412,5.075,5.075,0,0,0-3.309-2.178c-.112-.037-.169-.068-.492-.465a4.424,4.424,0,0,0-1.62-1.353c-2.1-.938-3.147-.931-4.654-1.9l-.446-.3.138-.315.6-.052c.4,0,.86.022,1.329.029l.837-.068c1.65-.338,3.039-.533,4.154-.721a5.648,5.648,0,0,0,3.778-2.906,23.758,23.758,0,0,0,2.024-4.258,26.728,26.728,0,0,0,1.631-7.181v-.474c0-2.155-.293-4.37-.293-5.526" transform="translate(2.598 0.638)"/><path class="a" d="M857.953,509.831a22.688,22.688,0,0,0-2.7-3.133,8.063,8.063,0,0,0-1.851-1.465,5.15,5.15,0,0,0-1.946-.818l-.147-.014a1.23,1.23,0,0,0-1.1.735,4.256,4.256,0,0,0-.286.9l-.087.271-.021.052a2.912,2.912,0,0,0-.6,1.293,5.871,5.871,0,0,1-1.1,1.786,42.216,42.216,0,0,0-3.286,4.762,20.421,20.421,0,0,1-.932,2.254,2.585,2.585,0,0,0-.56,1.411l-.078.526c-.075.233-.469.931-.823,1.622a6.486,6.486,0,0,0-.808,2.029v.135a1.5,1.5,0,0,0,.549,1.2l1.089.384.988-.256a38.161,38.161,0,0,1,3.913-1.75c1.784-.721,4.439-1.4,6.276-3.328a24.806,24.806,0,0,0,3.383-4.274,4.972,4.972,0,0,0,.687-2.381,3.639,3.639,0,0,0-.563-1.945" transform="translate(2.967 0.472)"/><path class="a" d="M852.3,547.291a1.506,1.506,0,0,1-.8-.2,6.887,6.887,0,0,0-1.43-.607c-.394-.1-.786-.166-1.115-.257l-.387-.143-.105-.068a1.677,1.677,0,0,1-.417-1.059l.155-.66a12.808,12.808,0,0,1,1.2-2.051,4.121,4.121,0,0,1,1.164-1.209,14.645,14.645,0,0,0,3.546-2.367h.053l1.291.729a3.556,3.556,0,0,1,.808,2.351v.18c-.03,1.247-.469,2.562-.484,3.681a1.854,1.854,0,0,1-1.022,1.39,5.943,5.943,0,0,1-2.238.277Zm-4.529,7.9a7.578,7.578,0,0,0-1.415.306,2.641,2.641,0,0,0-1.412.992l-.181.1-.052-.377.052-.457c.08-.511.871-1.068,1.248-2.366.116-.481.191-1.082.323-1.577l.2-.593.057-.128h.176a4.96,4.96,0,0,1,3.583,1.864,2.4,2.4,0,0,1,.632,1.291c-.007.474-.1.474-.082.474l-.4.066a20.594,20.594,0,0,0-2.73.407m33.435,5.249a5.675,5.675,0,0,0-1.924-.722,22.99,22.99,0,0,0-2.783-.494,51.079,51.079,0,0,1-5.955-1.405c-1.206-.329-1.908-.819-4.105-1.419a15.481,15.481,0,0,1-4.548-1.989,9.287,9.287,0,0,1-1.622-1c-.384-.339-.462-.519-.462-.69l.161-.5a5.449,5.449,0,0,0,1.156-2.847,44.616,44.616,0,0,1,.759-5.316,38.953,38.953,0,0,0,.71-4.094,4.329,4.329,0,0,1,.245-1.014,6.55,6.55,0,0,0,.247-1.833l-.007-.428a1.984,1.984,0,0,0-1.333-1.788,5.625,5.625,0,0,1-1.152-.51,5.516,5.516,0,0,0-3.383-1.1l-.432.015h-.135l-.27-.054a1.857,1.857,0,0,0-.977-.314l-.34.03a16.588,16.588,0,0,1-2.361.713c-.367.03-.939-.412-1.033-1.193a2.557,2.557,0,0,0-1.25-1.879,4.865,4.865,0,0,1-1.178-.907,4.743,4.743,0,0,0-2.708-1.383l-.781-.556-.488-.5a1.552,1.552,0,0,0-1.029-.429l-.8.242a1.478,1.478,0,0,0-.63,1.3,9.1,9.1,0,0,0,.154,1.187,7.464,7.464,0,0,1,.191,1.63,12.034,12.034,0,0,1-.368,2.764c-.675,2.907-1.107,4.08-1.561,5.746-.484,1.834-.282,2.434-.86,3.553-.808,1.674-.947,3.95-1.622,5.37a27.391,27.391,0,0,0-1.8,4.2,21.566,21.566,0,0,1-1.511,3.824,6.8,6.8,0,0,0-.9,2.454,3.081,3.081,0,0,0-.717,1.69l.344,1.044a24.4,24.4,0,0,0,2.754,3.14,6.078,6.078,0,0,0,3.7,1.216c1.13.1,2.783.2,3.313.286l.307.022a7.866,7.866,0,0,0,3.413-1.195,9.24,9.24,0,0,0,3.279-1.764c.653-.608,1.183-.961,1.661-1.345a3.732,3.732,0,0,0,1.254-1.494c.315-.759,1.021-1.111,1.878-1.916a4.946,4.946,0,0,1,1.667-.232h.184l.357.172a5.8,5.8,0,0,0,1.235.765,12.246,12.246,0,0,1,3.339,2.015,20.522,20.522,0,0,0,2.655,1.862,3.543,3.543,0,0,0,2.306.855l.545-.044c.762-.187.968-.339,1.033-.3l.045.007a19.1,19.1,0,0,0,2.523.129c.425,0,.924,0,1.455-.031,2.259-.06,3.567-.848,4.438-.878.582-.045,1.412-.083,2.16-.2a4.589,4.589,0,0,0,1.107-.293,1.422,1.422,0,0,0,.916-1.27,1.182,1.182,0,0,0-.468-.917" transform="translate(2.882 0.717)"/><path class="a" d="M937.394,513.237l-.123-.887a23.154,23.154,0,0,0-1.578-4.206,2.918,2.918,0,0,0-2.657-1.539,3.933,3.933,0,0,0-1.188.188,7.363,7.363,0,0,1-1.989.307,3.449,3.449,0,0,1-1.491-.279l-.116-.164a7.251,7.251,0,0,0-2.292-2.787c-1.869-1.344-3.207-2.1-3.822-2.682a11.5,11.5,0,0,0-1.509-1.155,3.835,3.835,0,0,0-1.784-.684l-.192.022a1.536,1.536,0,0,0-1.194.962,3.181,3.181,0,0,0-.2,1.148l.029.473c.033.368.094,1.074.094,1.719a3.507,3.507,0,0,1-.116,1.112,9.566,9.566,0,0,0-1.483,3.8c-.163,1.66-.617,3.079-1.307,3.274a11.838,11.838,0,0,1-3.847.661l-.353-.015c-.423,0-1.047-.315-1.915-.353a1.6,1.6,0,0,0-1.416.766l-.191.706a3.368,3.368,0,0,0,1.689,2.509c1.163.714,2.156.841,2.347,1.067.294.134.77,1.307,2.238,1.75l.7.338a3.565,3.565,0,0,0,1.23.579l.516.06c1.393-.12,1.825-.871,3.56-1.72,1.891-.969,3.755-1.359,5.774-2.252a9.16,9.16,0,0,1,4.3-1.037l.877-.022c1.577,0,3.145.225,4.421.225h.379a4.523,4.523,0,0,0,1.606-.278,1.727,1.727,0,0,0,1-1.607" transform="translate(3.676 0.417)"/><path class="a" d="M910.581,523.853a29.689,29.689,0,0,0-3.215-1.833,25.69,25.69,0,0,1-2.738-1.058,6.282,6.282,0,0,0-2.107-.661h-.148a1.293,1.293,0,0,0-.992.714l-.146.744.108.96c-.008.279-.285,1.8-.631,3.314-.378,1.577-.822,3.32-1.13,4.205-.808,2.321-1.8,3.943-2.245,5.122-.455,1.209-1.157,4.491-2.186,7.548-1,3.021-3.89,10.928-4.405,11.935a24.8,24.8,0,0,0-1.539,3.657,27.656,27.656,0,0,1-1.322,4.62,13.247,13.247,0,0,1-1.532,2.614l-.567.749a1.752,1.752,0,0,0-.4,1.008,2.115,2.115,0,0,0,.541,1.315,1.993,1.993,0,0,0,1.469.7,4.822,4.822,0,0,0,2.268-.931,11.878,11.878,0,0,0,2.591-2.4c1.631-2.118,2.606-2.449,3.92-4.417,1.142-1.81,2.95-3.072,3.932-4.956a22.59,22.59,0,0,1,2.253-4.011,10.21,10.21,0,0,0,1.784-3.681c.146-.639,1.27-2.569,2.325-5.37s1.152-3.808,1.652-4.47a3.866,3.866,0,0,0,.638-1.87,1.69,1.69,0,0,1,.14-.727,18.25,18.25,0,0,0,1.386-3.119,12.317,12.317,0,0,0,1.292-3.461,2.4,2.4,0,0,1,.36-.977,4.781,4.781,0,0,0,.616-1.517l.069-.729a3.371,3.371,0,0,0-2.047-3.02" transform="translate(3.444 0.645)"/><path class="a" d="M942.153,530.986c-.263-.2-.593-.578-1.062-.962a3.086,3.086,0,0,0-1.975-.728h-.236c-1.349.023-3.632-.624-5.63-.631-.924.007-1.619.068-2.119.068a1.506,1.506,0,0,1-1-.248,4.573,4.573,0,0,1-.917-1.285,4.316,4.316,0,0,0-1.982-1.877,6.007,6.007,0,0,1-1.549-1.066,2.7,2.7,0,0,0-1.727-.895l-.665.135a1.193,1.193,0,0,0-.638.653,6.009,6.009,0,0,0-.274,1.773,8.821,8.821,0,0,1-.132,1.18,18.962,18.962,0,0,0-.609,2.32c-.1.436-.2.864-.284,1.194l-.113.369-.042.083a1.982,1.982,0,0,0-.321,1.231l.015.819-.009.172c.009.039-.274.481-.567.993a5.034,5.034,0,0,0-.7,1.944,21.433,21.433,0,0,0-.176,2.3,6.257,6.257,0,0,0,1.017,3.521,11.987,11.987,0,0,0,1.277,1.669,3.633,3.633,0,0,0,2.351,1.277c.409.014.991.081,1.6.081a4.2,4.2,0,0,0,1.517-.225,2.1,2.1,0,0,0,1.254-1.335,33.154,33.154,0,0,0,.613-4.266,7.588,7.588,0,0,1,.286-1.142,5.951,5.951,0,0,0,.225-1.751l-.008-.352-.01-.068c.018-1.1.746-1.487,1.663-1.54h.037l.777.015c2.121,0,3.514-.33,5.223-.316l.6.016c.961.022,2.317.449,3.454.457a1.76,1.76,0,0,0,1.593-.714l.314-1.043a2.451,2.451,0,0,0-1.07-1.825" transform="translate(3.814 0.679)"/><path class="a" d="M931.856,551.935l-.03.225v-.005a4.192,4.192,0,0,0-.108,1.095v.188c.015.534-.068.788-.117.8-.735.832-1,1.591-1.813,2.673a13.261,13.261,0,0,1-3.215,3.349c-.491.265-.762.437-.867.49l-.034.006H925.6l-.646-.03a3.825,3.825,0,0,1-1.284-.165c-.264-.143-.477-.27-.683-1.06a15.564,15.564,0,0,0-.556-1.884,3.674,3.674,0,0,1-.214-1.344v-.187a14.654,14.654,0,0,1,.2-2.284c.137-.623.344-.9.461-.947.654-.457,1.66-.405,3.023-1.057a2.741,2.741,0,0,1,1.014-.279,11.194,11.194,0,0,0,1.856-.338,9.2,9.2,0,0,1,2.114-.428h.015c.384.014.39.068.409.068.428.592.544.886.544,1.11m6.707-4.107h0c-1.356-.406-1.776-.66-2.9-.939a12.311,12.311,0,0,0-3.045-.368,25.584,25.584,0,0,0-4.079.39,40.274,40.274,0,0,0-5.945,1.451,25.071,25.071,0,0,1-2.545.795H920l-.61-.15-.2-.143h-.007l-.569-.856a1.8,1.8,0,0,0-1.345-.759l-.691.219a2.731,2.731,0,0,0-1.261,2.5v.217l-.031.075a14.785,14.785,0,0,1-1.115,1.624,3.836,3.836,0,0,0-.578,2.246,8.589,8.589,0,0,0,1.071,4.054,48.406,48.406,0,0,0,5.006,6.2c.492.474,1.062,1.1,1.591,1.668a11.378,11.378,0,0,0,1.368,1.353,3.13,3.13,0,0,0,1.349.457,11.329,11.329,0,0,0,1.592.1,19.473,19.473,0,0,0,2.106-.112,31.279,31.279,0,0,0,4.023-.759,5.841,5.841,0,0,0,1.708-.6,4.226,4.226,0,0,1,.931-.384,2.957,2.957,0,0,0,1.712-1.261,9.9,9.9,0,0,0,.856-1.63c.214-.654,1.912-1.893,3.215-4.266a10.764,10.764,0,0,0,1.043-2.765,2.887,2.887,0,0,1,.4-1.12,3.411,3.411,0,0,0,.5-2,5.306,5.306,0,0,0-3.494-5.234" transform="translate(3.75 0.931)"/></g></svg>